<mxfile host="app.diagrams.net" modified="2024-04-01T11:49:54.227Z" agent="Mozilla/5.0 (Windows NT 10.0; Win64; x64) AppleWebKit/537.36 (KHTML, like Gecko) Chrome/123.0.0.0 Safari/537.36" etag="L4KFmfBe6QRvLgayH-zY" version="24.2.1" type="device">
  <diagram name="Σελίδα-1" id="ADeveQASinf7AJqToRMz">
    <mxGraphModel dx="10122" dy="3393" grid="1" gridSize="10" guides="1" tooltips="1" connect="1" arrows="1" fold="1" page="1" pageScale="1" pageWidth="827" pageHeight="1169" math="0" shadow="0">
      <root>
        <mxCell id="0" />
        <mxCell id="1" parent="0" />
        <mxCell id="PczG7CteMkVR-np3fPol-113" value="&lt;b&gt;&lt;font style=&quot;font-size: 24px;&quot;&gt;UCE CASE DIAGRAM&lt;/font&gt;&lt;/b&gt;" style="text;html=1;align=center;verticalAlign=middle;resizable=0;points=[];autosize=1;strokeColor=none;fillColor=#007FFF;" parent="1" vertex="1">
          <mxGeometry x="-2790" y="-480" width="270" height="40" as="geometry" />
        </mxCell>
        <mxCell id="h5EkMIQOkNv7f-PZCays-1" value="Student" style="shape=umlActor;verticalLabelPosition=bottom;verticalAlign=top;html=1;outlineConnect=0;" parent="1" vertex="1">
          <mxGeometry x="-4720" y="280" width="30" height="60" as="geometry" />
        </mxCell>
        <mxCell id="h5EkMIQOkNv7f-PZCays-6" value="Teacher" style="shape=umlActor;verticalLabelPosition=bottom;verticalAlign=top;html=1;outlineConnect=0;" parent="1" vertex="1">
          <mxGeometry x="-4720" y="550" width="30" height="60" as="geometry" />
        </mxCell>
        <mxCell id="h5EkMIQOkNv7f-PZCays-7" value="Admin&lt;span style=&quot;color: rgba(0, 0, 0, 0); font-family: monospace; font-size: 0px; text-align: start;&quot;&gt;%3CmxGraphModel%3E%3Croot%3E%3CmxCell%20id%3D%220%22%2F%3E%3CmxCell%20id%3D%221%22%20parent%3D%220%22%2F%3E%3CmxCell%20id%3D%222%22%20value%3D%22Student%22%20style%3D%22shape%3DumlActor%3BverticalLabelPosition%3Dbottom%3BverticalAlign%3Dtop%3Bhtml%3D1%3BoutlineConnect%3D0%3B%22%20vertex%3D%221%22%20parent%3D%221%22%3E%3CmxGeometry%20x%3D%22-3770%22%20y%3D%22260%22%20width%3D%2230%22%20height%3D%2260%22%20as%3D%22geometry%22%2F%3E%3C%2FmxCell%3E%3C%2Froot%3E%3C%2FmxGraphModel%3E&lt;/span&gt;" style="shape=umlActor;verticalLabelPosition=bottom;verticalAlign=top;html=1;outlineConnect=0;" parent="1" vertex="1">
          <mxGeometry x="-4720" y="1290" width="30" height="60" as="geometry" />
        </mxCell>
        <mxCell id="h5EkMIQOkNv7f-PZCays-8" value="Secretary" style="shape=umlActor;verticalLabelPosition=bottom;verticalAlign=top;html=1;outlineConnect=0;" parent="1" vertex="1">
          <mxGeometry x="-4710" y="930" width="30" height="60" as="geometry" />
        </mxCell>
        <mxCell id="h5EkMIQOkNv7f-PZCays-20" value="&lt;b&gt;Send Message&lt;/b&gt;" style="ellipse;whiteSpace=wrap;html=1;" parent="1" vertex="1">
          <mxGeometry x="-3410" y="680" width="140" height="70" as="geometry" />
        </mxCell>
        <mxCell id="h5EkMIQOkNv7f-PZCays-21" value="&lt;b&gt;Compose Message&lt;/b&gt;" style="ellipse;whiteSpace=wrap;html=1;" parent="1" vertex="1">
          <mxGeometry x="-3280" y="830" width="140" height="70" as="geometry" />
        </mxCell>
        <mxCell id="h5EkMIQOkNv7f-PZCays-27" value="" style="endArrow=none;html=1;rounded=0;exitX=1;exitY=0.3333333333333333;exitDx=0;exitDy=0;exitPerimeter=0;entryX=0;entryY=0.5;entryDx=0;entryDy=0;" parent="1" source="h5EkMIQOkNv7f-PZCays-6" target="h5EkMIQOkNv7f-PZCays-20" edge="1">
          <mxGeometry width="50" height="50" relative="1" as="geometry">
            <mxPoint x="-3730" y="1000" as="sourcePoint" />
            <mxPoint x="-3355" y="422" as="targetPoint" />
          </mxGeometry>
        </mxCell>
        <mxCell id="h5EkMIQOkNv7f-PZCays-34" value="" style="endArrow=classic;html=1;rounded=0;exitX=0.5;exitY=1;exitDx=0;exitDy=0;entryX=0.5;entryY=0;entryDx=0;entryDy=0;" parent="1" source="h5EkMIQOkNv7f-PZCays-20" target="h5EkMIQOkNv7f-PZCays-21" edge="1">
          <mxGeometry width="50" height="50" relative="1" as="geometry">
            <mxPoint x="-3030" y="590" as="sourcePoint" />
            <mxPoint x="-2980" y="540" as="targetPoint" />
          </mxGeometry>
        </mxCell>
        <mxCell id="h5EkMIQOkNv7f-PZCays-35" value="&amp;lt;&amp;lt;include&amp;gt;&amp;gt;" style="edgeLabel;html=1;align=center;verticalAlign=middle;resizable=0;points=[];" parent="h5EkMIQOkNv7f-PZCays-34" vertex="1" connectable="0">
          <mxGeometry x="0.0198" y="-3" relative="1" as="geometry">
            <mxPoint as="offset" />
          </mxGeometry>
        </mxCell>
        <mxCell id="h5EkMIQOkNv7f-PZCays-36" value="&lt;b&gt;Successfully Sent&lt;/b&gt;" style="ellipse;whiteSpace=wrap;html=1;" parent="1" vertex="1">
          <mxGeometry x="-3210" y="650" width="140" height="70" as="geometry" />
        </mxCell>
        <mxCell id="h5EkMIQOkNv7f-PZCays-40" value="&lt;b&gt;Teacher must:&amp;nbsp;&lt;/b&gt;&lt;div&gt;&lt;b&gt;1. Select Recipient&lt;/b&gt;&lt;/div&gt;&lt;div&gt;&lt;b&gt;2. Give Message Title and Body&lt;/b&gt;&lt;/div&gt;&lt;div&gt;&lt;b&gt;3.Attach up to 2 files&lt;/b&gt;&lt;/div&gt;" style="rounded=1;whiteSpace=wrap;html=1;" parent="1" vertex="1">
          <mxGeometry x="-3410" y="810" width="120" height="110" as="geometry" />
        </mxCell>
        <mxCell id="h5EkMIQOkNv7f-PZCays-42" value="" style="endArrow=none;dashed=1;html=1;rounded=0;exitX=0;exitY=1;exitDx=0;exitDy=0;entryX=1;entryY=1;entryDx=0;entryDy=0;" parent="1" source="h5EkMIQOkNv7f-PZCays-21" target="h5EkMIQOkNv7f-PZCays-40" edge="1">
          <mxGeometry width="50" height="50" relative="1" as="geometry">
            <mxPoint x="-3260" y="980" as="sourcePoint" />
            <mxPoint x="-3310" y="1060" as="targetPoint" />
          </mxGeometry>
        </mxCell>
        <mxCell id="h5EkMIQOkNv7f-PZCays-43" value="&lt;b&gt;Attatchment Limit Exceeded&lt;/b&gt;" style="ellipse;whiteSpace=wrap;html=1;" parent="1" vertex="1">
          <mxGeometry x="-2960" y="800" width="140" height="70" as="geometry" />
        </mxCell>
        <mxCell id="h5EkMIQOkNv7f-PZCays-44" value="&lt;b&gt;Recipient Not Selected&lt;/b&gt;" style="ellipse;whiteSpace=wrap;html=1;" parent="1" vertex="1">
          <mxGeometry x="-2980" y="890" width="140" height="70" as="geometry" />
        </mxCell>
        <mxCell id="h5EkMIQOkNv7f-PZCays-45" value="&lt;b&gt;Title or Body Not Given&lt;/b&gt;" style="ellipse;whiteSpace=wrap;html=1;" parent="1" vertex="1">
          <mxGeometry x="-3090" y="965" width="140" height="70" as="geometry" />
        </mxCell>
        <mxCell id="h5EkMIQOkNv7f-PZCays-49" value="&amp;lt;&amp;lt;extend&amp;gt;&amp;gt;" style="endArrow=open;endSize=12;dashed=1;html=1;rounded=0;entryX=0;entryY=0;entryDx=0;entryDy=0;exitX=1;exitY=0;exitDx=0;exitDy=0;" parent="1" source="h5EkMIQOkNv7f-PZCays-21" target="h5EkMIQOkNv7f-PZCays-43" edge="1">
          <mxGeometry width="160" relative="1" as="geometry">
            <mxPoint x="-3220" y="880" as="sourcePoint" />
            <mxPoint x="-3060" y="880" as="targetPoint" />
            <Array as="points" />
          </mxGeometry>
        </mxCell>
        <mxCell id="h5EkMIQOkNv7f-PZCays-52" value="&lt;b&gt;Unsuccessfully Sent&lt;/b&gt;" style="ellipse;whiteSpace=wrap;html=1;" parent="1" vertex="1">
          <mxGeometry x="-3130" y="725" width="140" height="70" as="geometry" />
        </mxCell>
        <mxCell id="h5EkMIQOkNv7f-PZCays-60" value="" style="endArrow=classic;html=1;rounded=0;exitX=0.5;exitY=1;exitDx=0;exitDy=0;entryX=0.5;entryY=0;entryDx=0;entryDy=0;" parent="1" source="h5EkMIQOkNv7f-PZCays-21" target="h5EkMIQOkNv7f-PZCays-45" edge="1">
          <mxGeometry width="50" height="50" relative="1" as="geometry">
            <mxPoint x="-3150" y="930" as="sourcePoint" />
            <mxPoint x="-3130" y="1100" as="targetPoint" />
          </mxGeometry>
        </mxCell>
        <mxCell id="h5EkMIQOkNv7f-PZCays-61" value="&amp;lt;&amp;lt;include&amp;gt;&amp;gt;" style="edgeLabel;html=1;align=center;verticalAlign=middle;resizable=0;points=[];" parent="h5EkMIQOkNv7f-PZCays-60" vertex="1" connectable="0">
          <mxGeometry x="0.0198" y="-3" relative="1" as="geometry">
            <mxPoint as="offset" />
          </mxGeometry>
        </mxCell>
        <mxCell id="h5EkMIQOkNv7f-PZCays-62" value="" style="endArrow=classic;html=1;rounded=0;exitX=1;exitY=1;exitDx=0;exitDy=0;entryX=0;entryY=0;entryDx=0;entryDy=0;" parent="1" source="h5EkMIQOkNv7f-PZCays-21" target="h5EkMIQOkNv7f-PZCays-44" edge="1">
          <mxGeometry width="50" height="50" relative="1" as="geometry">
            <mxPoint x="-3250" y="760" as="sourcePoint" />
            <mxPoint x="-3230" y="930" as="targetPoint" />
          </mxGeometry>
        </mxCell>
        <mxCell id="h5EkMIQOkNv7f-PZCays-63" value="&amp;lt;&amp;lt;include&amp;gt;&amp;gt;" style="edgeLabel;html=1;align=center;verticalAlign=middle;resizable=0;points=[];" parent="h5EkMIQOkNv7f-PZCays-62" vertex="1" connectable="0">
          <mxGeometry x="0.0198" y="-3" relative="1" as="geometry">
            <mxPoint as="offset" />
          </mxGeometry>
        </mxCell>
        <mxCell id="h5EkMIQOkNv7f-PZCays-69" value="&lt;b&gt;Edit Profile&lt;/b&gt;" style="ellipse;whiteSpace=wrap;html=1;" parent="1" vertex="1">
          <mxGeometry x="-3380" y="290" width="140" height="70" as="geometry" />
        </mxCell>
        <mxCell id="h5EkMIQOkNv7f-PZCays-70" value="" style="endArrow=none;html=1;rounded=0;entryX=0;entryY=0;entryDx=0;entryDy=0;exitX=1;exitY=1;exitDx=0;exitDy=0;exitPerimeter=0;" parent="1" source="h5EkMIQOkNv7f-PZCays-1" target="h5EkMIQOkNv7f-PZCays-69" edge="1">
          <mxGeometry width="50" height="50" relative="1" as="geometry">
            <mxPoint x="-3730" y="210" as="sourcePoint" />
            <mxPoint x="-3326" y="695" as="targetPoint" />
          </mxGeometry>
        </mxCell>
        <mxCell id="h5EkMIQOkNv7f-PZCays-76" value="&lt;b&gt;Perform Changes&lt;/b&gt;" style="ellipse;whiteSpace=wrap;html=1;" parent="1" vertex="1">
          <mxGeometry x="-3120" y="320" width="140" height="70" as="geometry" />
        </mxCell>
        <mxCell id="h5EkMIQOkNv7f-PZCays-77" value="&lt;b&gt;User can change:&lt;/b&gt;&lt;div&gt;&lt;b&gt;-username&lt;/b&gt;&lt;/div&gt;&lt;div&gt;&lt;b&gt;-password&lt;/b&gt;&lt;/div&gt;&lt;div&gt;&lt;b&gt;-name&lt;/b&gt;&lt;/div&gt;&lt;div&gt;&lt;b&gt;-upload photo&lt;/b&gt;&lt;/div&gt;" style="rounded=1;whiteSpace=wrap;html=1;" parent="1" vertex="1">
          <mxGeometry x="-3210" y="230" width="120" height="70" as="geometry" />
        </mxCell>
        <mxCell id="h5EkMIQOkNv7f-PZCays-78" value="" style="endArrow=none;dashed=1;html=1;rounded=0;exitX=0.5;exitY=0;exitDx=0;exitDy=0;entryX=0.25;entryY=1;entryDx=0;entryDy=0;" parent="1" source="h5EkMIQOkNv7f-PZCays-76" target="h5EkMIQOkNv7f-PZCays-77" edge="1">
          <mxGeometry width="50" height="50" relative="1" as="geometry">
            <mxPoint x="-3171" y="410" as="sourcePoint" />
            <mxPoint x="-3170" y="340" as="targetPoint" />
          </mxGeometry>
        </mxCell>
        <mxCell id="h5EkMIQOkNv7f-PZCays-79" value="&lt;b&gt;Change Username&lt;/b&gt;" style="ellipse;whiteSpace=wrap;html=1;" parent="1" vertex="1">
          <mxGeometry x="-2990" y="210" width="140" height="70" as="geometry" />
        </mxCell>
        <mxCell id="h5EkMIQOkNv7f-PZCays-80" value="&lt;b&gt;Change Password&lt;/b&gt;" style="ellipse;whiteSpace=wrap;html=1;" parent="1" vertex="1">
          <mxGeometry x="-2890" y="290" width="140" height="70" as="geometry" />
        </mxCell>
        <mxCell id="h5EkMIQOkNv7f-PZCays-81" value="&lt;b&gt;Upload Photo&lt;/b&gt;" style="ellipse;whiteSpace=wrap;html=1;" parent="1" vertex="1">
          <mxGeometry x="-2850" y="380" width="140" height="70" as="geometry" />
        </mxCell>
        <mxCell id="h5EkMIQOkNv7f-PZCays-82" value="&amp;lt;&amp;lt;extend&amp;gt;&amp;gt;" style="endArrow=open;endSize=12;dashed=1;html=1;rounded=0;entryX=0;entryY=0;entryDx=0;entryDy=0;exitX=1;exitY=1;exitDx=0;exitDy=0;" parent="1" source="h5EkMIQOkNv7f-PZCays-76" target="h5EkMIQOkNv7f-PZCays-81" edge="1">
          <mxGeometry width="160" relative="1" as="geometry">
            <mxPoint x="-2980" y="505" as="sourcePoint" />
            <mxPoint x="-2818" y="475" as="targetPoint" />
          </mxGeometry>
        </mxCell>
        <mxCell id="h5EkMIQOkNv7f-PZCays-87" value="" style="endArrow=classic;html=1;rounded=0;exitX=1;exitY=0.5;exitDx=0;exitDy=0;entryX=0;entryY=0.5;entryDx=0;entryDy=0;" parent="1" source="h5EkMIQOkNv7f-PZCays-69" target="h5EkMIQOkNv7f-PZCays-76" edge="1">
          <mxGeometry width="50" height="50" relative="1" as="geometry">
            <mxPoint x="-3260" y="750" as="sourcePoint" />
            <mxPoint x="-3240" y="920" as="targetPoint" />
          </mxGeometry>
        </mxCell>
        <mxCell id="h5EkMIQOkNv7f-PZCays-88" value="&amp;lt;&amp;lt;include&amp;gt;&amp;gt;" style="edgeLabel;html=1;align=center;verticalAlign=middle;resizable=0;points=[];" parent="h5EkMIQOkNv7f-PZCays-87" vertex="1" connectable="0">
          <mxGeometry x="0.0198" y="-3" relative="1" as="geometry">
            <mxPoint as="offset" />
          </mxGeometry>
        </mxCell>
        <mxCell id="h5EkMIQOkNv7f-PZCays-89" value="&lt;b&gt;Profile Updated Successfully&amp;nbsp;&lt;/b&gt;" style="ellipse;whiteSpace=wrap;html=1;" parent="1" vertex="1">
          <mxGeometry x="-3055" y="440" width="140" height="70" as="geometry" />
        </mxCell>
        <mxCell id="h5EkMIQOkNv7f-PZCays-90" value="&lt;b&gt;Profile Updated Unsuccessfully&lt;/b&gt;" style="ellipse;whiteSpace=wrap;html=1;" parent="1" vertex="1">
          <mxGeometry x="-3150" y="515" width="140" height="70" as="geometry" />
        </mxCell>
        <mxCell id="h5EkMIQOkNv7f-PZCays-91" value="" style="endArrow=none;html=1;rounded=0;exitX=0.5;exitY=1;exitDx=0;exitDy=0;entryX=0;entryY=0;entryDx=0;entryDy=0;" parent="1" source="h5EkMIQOkNv7f-PZCays-69" target="h5EkMIQOkNv7f-PZCays-90" edge="1">
          <mxGeometry width="50" height="50" relative="1" as="geometry">
            <mxPoint x="-3190" y="715" as="sourcePoint" />
            <mxPoint x="-3050" y="705" as="targetPoint" />
            <Array as="points" />
          </mxGeometry>
        </mxCell>
        <mxCell id="h5EkMIQOkNv7f-PZCays-92" value="" style="endArrow=none;html=1;rounded=0;exitX=1;exitY=1;exitDx=0;exitDy=0;entryX=0;entryY=0.5;entryDx=0;entryDy=0;" parent="1" source="h5EkMIQOkNv7f-PZCays-69" target="h5EkMIQOkNv7f-PZCays-89" edge="1">
          <mxGeometry width="50" height="50" relative="1" as="geometry">
            <mxPoint x="-3220" y="470" as="sourcePoint" />
            <mxPoint x="-3119" y="535" as="targetPoint" />
            <Array as="points" />
          </mxGeometry>
        </mxCell>
        <mxCell id="h5EkMIQOkNv7f-PZCays-94" value="" style="endArrow=none;html=1;rounded=0;exitX=0.5;exitY=1;exitDx=0;exitDy=0;entryX=0.5;entryY=0;entryDx=0;entryDy=0;" parent="1" source="h5EkMIQOkNv7f-PZCays-76" target="h5EkMIQOkNv7f-PZCays-90" edge="1">
          <mxGeometry width="50" height="50" relative="1" as="geometry">
            <mxPoint x="-3220" y="470" as="sourcePoint" />
            <mxPoint x="-3120" y="536" as="targetPoint" />
            <Array as="points" />
          </mxGeometry>
        </mxCell>
        <mxCell id="h5EkMIQOkNv7f-PZCays-95" value="" style="endArrow=none;html=1;rounded=0;exitX=0;exitY=1;exitDx=0;exitDy=0;entryX=1;entryY=0;entryDx=0;entryDy=0;" parent="1" source="h5EkMIQOkNv7f-PZCays-52" target="h5EkMIQOkNv7f-PZCays-21" edge="1">
          <mxGeometry width="50" height="50" relative="1" as="geometry">
            <mxPoint x="-3155" y="590" as="sourcePoint" />
            <mxPoint x="-3185" y="715" as="targetPoint" />
            <Array as="points" />
          </mxGeometry>
        </mxCell>
        <mxCell id="h5EkMIQOkNv7f-PZCays-96" value="&amp;lt;&amp;lt;extend&amp;gt;&amp;gt;" style="endArrow=open;endSize=12;dashed=1;html=1;rounded=0;entryX=0;entryY=0.5;entryDx=0;entryDy=0;exitX=1;exitY=0.5;exitDx=0;exitDy=0;" parent="1" source="h5EkMIQOkNv7f-PZCays-76" target="h5EkMIQOkNv7f-PZCays-80" edge="1">
          <mxGeometry width="160" relative="1" as="geometry">
            <mxPoint x="-2990" y="389" as="sourcePoint" />
            <mxPoint x="-2840" y="411" as="targetPoint" />
          </mxGeometry>
        </mxCell>
        <mxCell id="h5EkMIQOkNv7f-PZCays-97" value="&amp;lt;&amp;lt;extend&amp;gt;&amp;gt;" style="endArrow=open;endSize=12;dashed=1;html=1;rounded=0;entryX=0;entryY=1;entryDx=0;entryDy=0;exitX=0.5;exitY=0;exitDx=0;exitDy=0;" parent="1" source="h5EkMIQOkNv7f-PZCays-76" target="h5EkMIQOkNv7f-PZCays-79" edge="1">
          <mxGeometry width="160" relative="1" as="geometry">
            <mxPoint x="-2970" y="365" as="sourcePoint" />
            <mxPoint x="-2880" y="335" as="targetPoint" />
          </mxGeometry>
        </mxCell>
        <mxCell id="h5EkMIQOkNv7f-PZCays-98" value="&lt;b&gt;Emergency Notifications&lt;/b&gt;" style="ellipse;whiteSpace=wrap;html=1;" parent="1" vertex="1">
          <mxGeometry x="-4480" y="60" width="140" height="70" as="geometry" />
        </mxCell>
        <mxCell id="h5EkMIQOkNv7f-PZCays-99" value="" style="endArrow=none;html=1;rounded=0;entryX=0;entryY=0.5;entryDx=0;entryDy=0;exitX=1;exitY=0.3333333333333333;exitDx=0;exitDy=0;exitPerimeter=0;" parent="1" source="h5EkMIQOkNv7f-PZCays-1" target="h5EkMIQOkNv7f-PZCays-98" edge="1">
          <mxGeometry width="50" height="50" relative="1" as="geometry">
            <mxPoint x="-3890" y="250" as="sourcePoint" />
            <mxPoint x="-3438" y="253" as="targetPoint" />
          </mxGeometry>
        </mxCell>
        <mxCell id="h5EkMIQOkNv7f-PZCays-101" value="&lt;b&gt;Show Message&lt;/b&gt;" style="ellipse;whiteSpace=wrap;html=1;" parent="1" vertex="1">
          <mxGeometry x="-4370" y="-50" width="140" height="70" as="geometry" />
        </mxCell>
        <mxCell id="h5EkMIQOkNv7f-PZCays-102" value="" style="endArrow=classic;html=1;rounded=0;exitX=0.5;exitY=0;exitDx=0;exitDy=0;entryX=0.5;entryY=1;entryDx=0;entryDy=0;" parent="1" source="h5EkMIQOkNv7f-PZCays-98" target="h5EkMIQOkNv7f-PZCays-101" edge="1">
          <mxGeometry width="50" height="50" relative="1" as="geometry">
            <mxPoint x="-4108" y="110" as="sourcePoint" />
            <mxPoint x="-4170" y="20" as="targetPoint" />
          </mxGeometry>
        </mxCell>
        <mxCell id="h5EkMIQOkNv7f-PZCays-103" value="&amp;lt;&amp;lt;include&amp;gt;&amp;gt;" style="edgeLabel;html=1;align=center;verticalAlign=middle;resizable=0;points=[];" parent="h5EkMIQOkNv7f-PZCays-102" vertex="1" connectable="0">
          <mxGeometry x="0.0198" y="-3" relative="1" as="geometry">
            <mxPoint as="offset" />
          </mxGeometry>
        </mxCell>
        <mxCell id="h5EkMIQOkNv7f-PZCays-104" value="&lt;b&gt;Student presses the bell icon&lt;/b&gt;" style="rounded=1;whiteSpace=wrap;html=1;" parent="1" vertex="1">
          <mxGeometry x="-4430" y="-150" width="120" height="70" as="geometry" />
        </mxCell>
        <mxCell id="h5EkMIQOkNv7f-PZCays-105" value="" style="endArrow=none;dashed=1;html=1;rounded=0;exitX=0;exitY=0;exitDx=0;exitDy=0;entryX=1;entryY=1;entryDx=0;entryDy=0;" parent="1" source="h5EkMIQOkNv7f-PZCays-101" target="h5EkMIQOkNv7f-PZCays-104" edge="1">
          <mxGeometry width="50" height="50" relative="1" as="geometry">
            <mxPoint x="-3780" y="210" as="sourcePoint" />
            <mxPoint x="-3950" y="210" as="targetPoint" />
          </mxGeometry>
        </mxCell>
        <mxCell id="h5EkMIQOkNv7f-PZCays-106" value="&lt;b&gt;Selection Period for Books&lt;/b&gt;" style="ellipse;whiteSpace=wrap;html=1;" parent="1" vertex="1">
          <mxGeometry x="-4180" y="-190" width="140" height="70" as="geometry" />
        </mxCell>
        <mxCell id="h5EkMIQOkNv7f-PZCays-107" value="&lt;b&gt;Enrollment Period for Subjects&lt;/b&gt;" style="ellipse;whiteSpace=wrap;html=1;" parent="1" vertex="1">
          <mxGeometry x="-4120" y="-90" width="140" height="70" as="geometry" />
        </mxCell>
        <mxCell id="h5EkMIQOkNv7f-PZCays-108" value="&lt;b&gt;Upload Period for Project&lt;/b&gt;" style="ellipse;whiteSpace=wrap;html=1;" parent="1" vertex="1">
          <mxGeometry x="-4110" y="20" width="140" height="70" as="geometry" />
        </mxCell>
        <mxCell id="h5EkMIQOkNv7f-PZCays-109" value="&amp;lt;&amp;lt;extend&amp;gt;&amp;gt;" style="endArrow=open;endSize=12;dashed=1;html=1;rounded=0;entryX=0.5;entryY=1;entryDx=0;entryDy=0;exitX=0.5;exitY=0;exitDx=0;exitDy=0;" parent="1" source="h5EkMIQOkNv7f-PZCays-101" target="h5EkMIQOkNv7f-PZCays-106" edge="1">
          <mxGeometry width="160" relative="1" as="geometry">
            <mxPoint x="-4360" y="-64.5" as="sourcePoint" />
            <mxPoint x="-4300" y="-125.5" as="targetPoint" />
          </mxGeometry>
        </mxCell>
        <mxCell id="h5EkMIQOkNv7f-PZCays-110" value="&amp;lt;&amp;lt;extend&amp;gt;&amp;gt;" style="endArrow=open;endSize=12;dashed=1;html=1;rounded=0;entryX=0;entryY=1;entryDx=0;entryDy=0;exitX=1;exitY=0;exitDx=0;exitDy=0;" parent="1" source="h5EkMIQOkNv7f-PZCays-101" target="h5EkMIQOkNv7f-PZCays-107" edge="1">
          <mxGeometry width="160" relative="1" as="geometry">
            <mxPoint x="-4300" y="-40" as="sourcePoint" />
            <mxPoint x="-4260" y="-130" as="targetPoint" />
          </mxGeometry>
        </mxCell>
        <mxCell id="h5EkMIQOkNv7f-PZCays-111" value="&amp;lt;&amp;lt;extend&amp;gt;&amp;gt;" style="endArrow=open;endSize=12;dashed=1;html=1;rounded=0;entryX=0;entryY=0;entryDx=0;entryDy=0;exitX=1;exitY=0.5;exitDx=0;exitDy=0;" parent="1" source="h5EkMIQOkNv7f-PZCays-101" target="h5EkMIQOkNv7f-PZCays-108" edge="1">
          <mxGeometry width="160" relative="1" as="geometry">
            <mxPoint x="-4250" y="-29" as="sourcePoint" />
            <mxPoint x="-4180" y="-61" as="targetPoint" />
          </mxGeometry>
        </mxCell>
        <mxCell id="h5EkMIQOkNv7f-PZCays-112" value="&lt;b&gt;User Notified Successfully&amp;nbsp;&lt;/b&gt;" style="ellipse;whiteSpace=wrap;html=1;" parent="1" vertex="1">
          <mxGeometry x="-4270" y="50" width="140" height="70" as="geometry" />
        </mxCell>
        <mxCell id="h5EkMIQOkNv7f-PZCays-113" value="" style="endArrow=none;html=1;rounded=0;exitX=1;exitY=1;exitDx=0;exitDy=0;entryX=0.5;entryY=0;entryDx=0;entryDy=0;" parent="1" source="h5EkMIQOkNv7f-PZCays-101" target="h5EkMIQOkNv7f-PZCays-112" edge="1">
          <mxGeometry width="50" height="50" relative="1" as="geometry">
            <mxPoint x="-4300" y="24" as="sourcePoint" />
            <mxPoint x="-4175" y="50" as="targetPoint" />
            <Array as="points" />
          </mxGeometry>
        </mxCell>
        <mxCell id="h5EkMIQOkNv7f-PZCays-114" value="&lt;b&gt;less than 1 week or 1 day&amp;nbsp;&lt;/b&gt;" style="rounded=1;whiteSpace=wrap;html=1;" parent="1" vertex="1">
          <mxGeometry x="-3960" y="-230" width="120" height="70" as="geometry" />
        </mxCell>
        <mxCell id="h5EkMIQOkNv7f-PZCays-115" value="" style="endArrow=none;dashed=1;html=1;rounded=0;exitX=0;exitY=0.75;exitDx=0;exitDy=0;entryX=1;entryY=0;entryDx=0;entryDy=0;" parent="1" source="h5EkMIQOkNv7f-PZCays-114" target="h5EkMIQOkNv7f-PZCays-106" edge="1">
          <mxGeometry width="50" height="50" relative="1" as="geometry">
            <mxPoint x="-4210" y="-259" as="sourcePoint" />
            <mxPoint x="-4270" y="-260" as="targetPoint" />
          </mxGeometry>
        </mxCell>
        <mxCell id="h5EkMIQOkNv7f-PZCays-116" value="" style="endArrow=none;dashed=1;html=1;rounded=0;exitX=0.25;exitY=1;exitDx=0;exitDy=0;entryX=0.5;entryY=0;entryDx=0;entryDy=0;" parent="1" source="h5EkMIQOkNv7f-PZCays-114" target="h5EkMIQOkNv7f-PZCays-107" edge="1">
          <mxGeometry width="50" height="50" relative="1" as="geometry">
            <mxPoint x="-4150" y="-258" as="sourcePoint" />
            <mxPoint x="-4210" y="-189" as="targetPoint" />
          </mxGeometry>
        </mxCell>
        <mxCell id="h5EkMIQOkNv7f-PZCays-117" value="" style="endArrow=none;dashed=1;html=1;rounded=0;exitX=0.75;exitY=1;exitDx=0;exitDy=0;entryX=1;entryY=0;entryDx=0;entryDy=0;" parent="1" source="h5EkMIQOkNv7f-PZCays-114" target="h5EkMIQOkNv7f-PZCays-108" edge="1">
          <mxGeometry width="50" height="50" relative="1" as="geometry">
            <mxPoint x="-4120" y="-240" as="sourcePoint" />
            <mxPoint x="-4130" y="-120" as="targetPoint" />
          </mxGeometry>
        </mxCell>
        <mxCell id="h5EkMIQOkNv7f-PZCays-118" value="&lt;b&gt;Login&lt;/b&gt;" style="ellipse;whiteSpace=wrap;html=1;" parent="1" vertex="1">
          <mxGeometry x="-2850" y="530" width="140" height="70" as="geometry" />
        </mxCell>
        <mxCell id="h5EkMIQOkNv7f-PZCays-119" value="" style="endArrow=classic;html=1;rounded=0;exitX=1;exitY=1;exitDx=0;exitDy=0;entryX=0;entryY=0;entryDx=0;entryDy=0;" parent="1" source="h5EkMIQOkNv7f-PZCays-89" target="h5EkMIQOkNv7f-PZCays-118" edge="1">
          <mxGeometry width="50" height="50" relative="1" as="geometry">
            <mxPoint x="-3150" y="435" as="sourcePoint" />
            <mxPoint x="-3110" y="365" as="targetPoint" />
          </mxGeometry>
        </mxCell>
        <mxCell id="h5EkMIQOkNv7f-PZCays-120" value="&amp;lt;&amp;lt;include&amp;gt;&amp;gt;" style="edgeLabel;html=1;align=center;verticalAlign=middle;resizable=0;points=[];" parent="h5EkMIQOkNv7f-PZCays-119" vertex="1" connectable="0">
          <mxGeometry x="0.0198" y="-3" relative="1" as="geometry">
            <mxPoint as="offset" />
          </mxGeometry>
        </mxCell>
        <mxCell id="h5EkMIQOkNv7f-PZCays-121" value="&lt;b&gt;CO-Share Tool&lt;/b&gt;" style="ellipse;whiteSpace=wrap;html=1;" parent="1" vertex="1">
          <mxGeometry x="-3560" y="85" width="140" height="70" as="geometry" />
        </mxCell>
        <mxCell id="h5EkMIQOkNv7f-PZCays-122" value="" style="endArrow=none;html=1;rounded=0;entryX=0;entryY=1;entryDx=0;entryDy=0;exitX=0;exitY=0.3333333333333333;exitDx=0;exitDy=0;exitPerimeter=0;" parent="1" source="h5EkMIQOkNv7f-PZCays-1" target="h5EkMIQOkNv7f-PZCays-121" edge="1">
          <mxGeometry width="50" height="50" relative="1" as="geometry">
            <mxPoint x="-3905" y="240" as="sourcePoint" />
            <mxPoint x="-3770" y="215" as="targetPoint" />
          </mxGeometry>
        </mxCell>
        <mxCell id="h5EkMIQOkNv7f-PZCays-123" value="&lt;b&gt;Upload File&lt;/b&gt;" style="ellipse;whiteSpace=wrap;html=1;" parent="1" vertex="1">
          <mxGeometry x="-3760" y="-35" width="140" height="70" as="geometry" />
        </mxCell>
        <mxCell id="h5EkMIQOkNv7f-PZCays-124" value="&lt;b&gt;Team Progress&lt;/b&gt;" style="ellipse;whiteSpace=wrap;html=1;" parent="1" vertex="1">
          <mxGeometry x="-3560" y="-45" width="140" height="70" as="geometry" />
        </mxCell>
        <mxCell id="h5EkMIQOkNv7f-PZCays-125" value="&lt;b&gt;Participate in Video Call&lt;/b&gt;" style="ellipse;whiteSpace=wrap;html=1;" parent="1" vertex="1">
          <mxGeometry x="-3380" y="-55" width="140" height="70" as="geometry" />
        </mxCell>
        <mxCell id="h5EkMIQOkNv7f-PZCays-126" value="&amp;lt;&amp;lt;extend&amp;gt;&amp;gt;" style="endArrow=open;endSize=12;dashed=1;html=1;rounded=0;entryX=0;entryY=1;entryDx=0;entryDy=0;exitX=1;exitY=0.5;exitDx=0;exitDy=0;" parent="1" source="h5EkMIQOkNv7f-PZCays-121" target="h5EkMIQOkNv7f-PZCays-125" edge="1">
          <mxGeometry width="160" relative="1" as="geometry">
            <mxPoint x="-3420" y="105" as="sourcePoint" />
            <mxPoint x="-3300" y="15" as="targetPoint" />
          </mxGeometry>
        </mxCell>
        <mxCell id="h5EkMIQOkNv7f-PZCays-127" value="&amp;lt;&amp;lt;extend&amp;gt;&amp;gt;" style="endArrow=open;endSize=12;dashed=1;html=1;rounded=0;entryX=0.5;entryY=1;entryDx=0;entryDy=0;exitX=0.5;exitY=0;exitDx=0;exitDy=0;" parent="1" source="h5EkMIQOkNv7f-PZCays-121" target="h5EkMIQOkNv7f-PZCays-124" edge="1">
          <mxGeometry width="160" relative="1" as="geometry">
            <mxPoint x="-3371" y="115" as="sourcePoint" />
            <mxPoint x="-3259" y="85" as="targetPoint" />
          </mxGeometry>
        </mxCell>
        <mxCell id="h5EkMIQOkNv7f-PZCays-128" value="&amp;lt;&amp;lt;extend&amp;gt;&amp;gt;" style="endArrow=open;endSize=12;dashed=1;html=1;rounded=0;entryX=1;entryY=1;entryDx=0;entryDy=0;exitX=0;exitY=0;exitDx=0;exitDy=0;" parent="1" source="h5EkMIQOkNv7f-PZCays-121" target="h5EkMIQOkNv7f-PZCays-123" edge="1">
          <mxGeometry width="160" relative="1" as="geometry">
            <mxPoint x="-3350" y="140" as="sourcePoint" />
            <mxPoint x="-3219" y="155" as="targetPoint" />
          </mxGeometry>
        </mxCell>
        <mxCell id="h5EkMIQOkNv7f-PZCays-129" value="&lt;b&gt;File Uploaded Successfully&amp;nbsp;&lt;/b&gt;" style="ellipse;whiteSpace=wrap;html=1;" parent="1" vertex="1">
          <mxGeometry x="-3790" y="-210" width="140" height="70" as="geometry" />
        </mxCell>
        <mxCell id="h5EkMIQOkNv7f-PZCays-130" value="" style="endArrow=none;html=1;rounded=0;entryX=0.5;entryY=1;entryDx=0;entryDy=0;exitX=0.5;exitY=0;exitDx=0;exitDy=0;" parent="1" source="h5EkMIQOkNv7f-PZCays-123" target="h5EkMIQOkNv7f-PZCays-129" edge="1">
          <mxGeometry width="50" height="50" relative="1" as="geometry">
            <mxPoint x="-3590" y="-125" as="sourcePoint" />
            <mxPoint x="-3450" y="-125" as="targetPoint" />
            <Array as="points" />
          </mxGeometry>
        </mxCell>
        <mxCell id="h5EkMIQOkNv7f-PZCays-131" value="&lt;b&gt;Photo Uploaded Successfully&lt;/b&gt;&lt;span style=&quot;color: rgba(0, 0, 0, 0); font-family: monospace; font-size: 0px; text-align: start; text-wrap: nowrap;&quot;&gt;%3CmxGraphModel%3E%3Croot%3E%3CmxCell%20id%3D%220%22%2F%3E%3CmxCell%20id%3D%221%22%20parent%3D%220%22%2F%3E%3CmxCell%20id%3D%222%22%20value%3D%22%26lt%3Bb%26gt%3BUpload%20Photo%26lt%3B%2Fb%26gt%3B%22%20style%3D%22ellipse%3BwhiteSpace%3Dwrap%3Bhtml%3D1%3B%22%20vertex%3D%221%22%20parent%3D%221%22%3E%3CmxGeometry%20x%3D%22-2870%22%20y%3D%22390%22%20width%3D%22140%22%20height%3D%2270%22%20as%3D%22geometry%22%2F%3E%3C%2FmxCell%3E%3C%2Froot%3E%3C%2FmxGraphModel%3E&lt;/span&gt;&lt;span style=&quot;color: rgba(0, 0, 0, 0); font-family: monospace; font-size: 0px; text-align: start; text-wrap: nowrap;&quot;&gt;%3CmxGraphModel%3E%3Croot%3E%3CmxCell%20id%3D%220%22%2F%3E%3CmxCell%20id%3D%221%22%20parent%3D%220%22%2F%3E%3CmxCell%20id%3D%222%22%20value%3D%22%26lt%3Bb%26gt%3BUpload%20Photo%26lt%3B%2Fb%26gt%3B%22%20style%3D%22ellipse%3BwhiteSpace%3Dwrap%3Bhtml%3D1%3B%22%20vertex%3D%221%22%20parent%3D%221%22%3E%3CmxGeometry%20x%3D%22-2870%22%20y%3D%22390%22%20width%3D%22140%22%20height%3D%2270%22%20as%3D%22geometry%22%2F%3E%3C%2FmxCell%3E%3C%2Froot%3E%3C%2FmxGraphModel%3E&lt;/span&gt;" style="ellipse;whiteSpace=wrap;html=1;" parent="1" vertex="1">
          <mxGeometry x="-2660" y="350" width="140" height="70" as="geometry" />
        </mxCell>
        <mxCell id="h5EkMIQOkNv7f-PZCays-132" value="&lt;div style=&quot;text-align: center;&quot;&gt;&lt;span style=&quot;background-color: initial; text-align: start;&quot;&gt;&lt;b&gt;Wrong File Extennsion&lt;/b&gt;&lt;/span&gt;&lt;span style=&quot;background-color: initial; text-wrap: nowrap; color: rgba(0, 0, 0, 0); font-family: monospace; font-size: 0px; text-align: start;&quot;&gt;%3CmxGraphModel%3E%3Croot%3E%3CmxCell%20id%3D%220%22%2F%3E%3CmxCell%20id%3D%221%22%20parent%3D%220%22%2F%3E%3CmxCell%20id%3D%222%22%20value%3D%22%26lt%3Bb%26gt%3BUpload%20Photo%26lt%3B%2Fb%26gt%3B%22%20style%3D%22ellipse%3BwhiteSpace%3Dwrap%3Bhtml%3D1%3B%22%20vertex%3D%221%22%20parent%3D%221%22%3E%3CmxGeometry%20x%3D%22-2870%22%20y%3D%22390%22%20width%3D%22140%22%20height%3D%2270%22%20as%3D%22geometry%22%2F%3E%3C%2FmxCell%3E%3C%2Froot%3E%3C%2FmxGraphModel%3E&lt;/span&gt;&lt;span style=&quot;background-color: initial; text-wrap: nowrap; color: rgba(0, 0, 0, 0); font-family: monospace; font-size: 0px; text-align: start;&quot;&gt;%3CmxGraphModel%3E%3Croot%3E%3CmxCell%20id%3D%220%22%2F%3E%3CmxCell%20id%3D%221%22%20parent%3D%220%22%2F%3E%3CmxCell%20id%3D%222%22%20value%3D%22%26lt%3Bb%26gt%3BUpload%20Photo%26lt%3B%2Fb%26gt%3B%22%20style%3D%22ellipse%3BwhiteSpace%3Dwrap%3Bhtml%3D1%3B%22%20vertex%3D%221%22%20parent%3D%221%22%3E%3CmxGeometry%20x%3D%22-2870%22%20y%3D%22390%22%20width%3D%22140%22%20height%3D%2270%22%20as%3D%22geometry%22%2F%3E%3C%2FmxCell%3E%3C%2Froot%3E%3C%2FmxGraphModel%3E&lt;/span&gt;&lt;/div&gt;" style="ellipse;whiteSpace=wrap;html=1;" parent="1" vertex="1">
          <mxGeometry x="-2680" y="480" width="140" height="70" as="geometry" />
        </mxCell>
        <mxCell id="h5EkMIQOkNv7f-PZCays-133" value="&lt;b&gt;Photo is placed inside a JLabel&lt;/b&gt;" style="rounded=1;whiteSpace=wrap;html=1;" parent="1" vertex="1">
          <mxGeometry x="-2620" y="250" width="120" height="70" as="geometry" />
        </mxCell>
        <mxCell id="h5EkMIQOkNv7f-PZCays-134" value="" style="endArrow=none;dashed=1;html=1;rounded=0;exitX=0.5;exitY=0;exitDx=0;exitDy=0;entryX=0.5;entryY=1;entryDx=0;entryDy=0;" parent="1" source="h5EkMIQOkNv7f-PZCays-131" target="h5EkMIQOkNv7f-PZCays-133" edge="1">
          <mxGeometry width="50" height="50" relative="1" as="geometry">
            <mxPoint x="-2600" y="270" as="sourcePoint" />
            <mxPoint x="-2770" y="270" as="targetPoint" />
          </mxGeometry>
        </mxCell>
        <mxCell id="h5EkMIQOkNv7f-PZCays-135" value="" style="endArrow=classic;html=1;rounded=0;exitX=1;exitY=0.5;exitDx=0;exitDy=0;entryX=0;entryY=0.5;entryDx=0;entryDy=0;" parent="1" source="h5EkMIQOkNv7f-PZCays-81" target="h5EkMIQOkNv7f-PZCays-131" edge="1">
          <mxGeometry width="50" height="50" relative="1" as="geometry">
            <mxPoint x="-2700" y="320" as="sourcePoint" />
            <mxPoint x="-2660" y="250" as="targetPoint" />
          </mxGeometry>
        </mxCell>
        <mxCell id="h5EkMIQOkNv7f-PZCays-136" value="&amp;lt;&amp;lt;include&amp;gt;&amp;gt;" style="edgeLabel;html=1;align=center;verticalAlign=middle;resizable=0;points=[];" parent="h5EkMIQOkNv7f-PZCays-135" vertex="1" connectable="0">
          <mxGeometry x="0.0198" y="-3" relative="1" as="geometry">
            <mxPoint as="offset" />
          </mxGeometry>
        </mxCell>
        <mxCell id="h5EkMIQOkNv7f-PZCays-137" value="" style="endArrow=classic;html=1;rounded=0;exitX=1;exitY=1;exitDx=0;exitDy=0;entryX=0.071;entryY=0.233;entryDx=0;entryDy=0;entryPerimeter=0;" parent="1" source="h5EkMIQOkNv7f-PZCays-81" target="h5EkMIQOkNv7f-PZCays-132" edge="1">
          <mxGeometry width="50" height="50" relative="1" as="geometry">
            <mxPoint x="-2720" y="435" as="sourcePoint" />
            <mxPoint x="-2640" y="375" as="targetPoint" />
          </mxGeometry>
        </mxCell>
        <mxCell id="h5EkMIQOkNv7f-PZCays-138" value="&amp;lt;&amp;lt;include&amp;gt;&amp;gt;" style="edgeLabel;html=1;align=center;verticalAlign=middle;resizable=0;points=[];" parent="h5EkMIQOkNv7f-PZCays-137" vertex="1" connectable="0">
          <mxGeometry x="0.0198" y="-3" relative="1" as="geometry">
            <mxPoint as="offset" />
          </mxGeometry>
        </mxCell>
        <mxCell id="h5EkMIQOkNv7f-PZCays-139" value="" style="endArrow=none;html=1;rounded=0;exitX=1;exitY=1;exitDx=0;exitDy=0;entryX=0;entryY=0.5;entryDx=0;entryDy=0;" parent="1" source="h5EkMIQOkNv7f-PZCays-76" target="h5EkMIQOkNv7f-PZCays-132" edge="1">
          <mxGeometry width="50" height="50" relative="1" as="geometry">
            <mxPoint x="-2822" y="490" as="sourcePoint" />
            <mxPoint x="-2710" y="495" as="targetPoint" />
            <Array as="points" />
          </mxGeometry>
        </mxCell>
        <mxCell id="h5EkMIQOkNv7f-PZCays-140" value="&lt;b&gt;File Conflict&lt;/b&gt;" style="ellipse;whiteSpace=wrap;html=1;" parent="1" vertex="1">
          <mxGeometry x="-3620" y="-195" width="140" height="70" as="geometry" />
        </mxCell>
        <mxCell id="h5EkMIQOkNv7f-PZCays-141" value="&lt;b&gt;Delete &amp;amp; Substitution&lt;/b&gt;" style="ellipse;whiteSpace=wrap;html=1;" parent="1" vertex="1">
          <mxGeometry x="-3750" y="-350" width="140" height="70" as="geometry" />
        </mxCell>
        <mxCell id="h5EkMIQOkNv7f-PZCays-142" value="&lt;b&gt;New Version&lt;/b&gt;" style="ellipse;whiteSpace=wrap;html=1;" parent="1" vertex="1">
          <mxGeometry x="-3540" y="-350" width="140" height="70" as="geometry" />
        </mxCell>
        <mxCell id="h5EkMIQOkNv7f-PZCays-146" value="" style="endArrow=classic;html=1;rounded=0;exitX=1;exitY=0;exitDx=0;exitDy=0;entryX=0.5;entryY=1;entryDx=0;entryDy=0;" parent="1" source="h5EkMIQOkNv7f-PZCays-140" target="h5EkMIQOkNv7f-PZCays-142" edge="1">
          <mxGeometry width="50" height="50" relative="1" as="geometry">
            <mxPoint x="-3330" y="-225" as="sourcePoint" />
            <mxPoint x="-3269" y="-169" as="targetPoint" />
          </mxGeometry>
        </mxCell>
        <mxCell id="h5EkMIQOkNv7f-PZCays-147" value="&amp;lt;&amp;lt;include&amp;gt;&amp;gt;" style="edgeLabel;html=1;align=center;verticalAlign=middle;resizable=0;points=[];" parent="h5EkMIQOkNv7f-PZCays-146" vertex="1" connectable="0">
          <mxGeometry x="0.0198" y="-3" relative="1" as="geometry">
            <mxPoint as="offset" />
          </mxGeometry>
        </mxCell>
        <mxCell id="h5EkMIQOkNv7f-PZCays-148" value="" style="endArrow=classic;html=1;rounded=0;exitX=0;exitY=0;exitDx=0;exitDy=0;entryX=0.5;entryY=1;entryDx=0;entryDy=0;" parent="1" source="h5EkMIQOkNv7f-PZCays-140" target="h5EkMIQOkNv7f-PZCays-141" edge="1">
          <mxGeometry width="50" height="50" relative="1" as="geometry">
            <mxPoint x="-3491" y="-175" as="sourcePoint" />
            <mxPoint x="-3460" y="-270" as="targetPoint" />
          </mxGeometry>
        </mxCell>
        <mxCell id="h5EkMIQOkNv7f-PZCays-149" value="&amp;lt;&amp;lt;include&amp;gt;&amp;gt;" style="edgeLabel;html=1;align=center;verticalAlign=middle;resizable=0;points=[];" parent="h5EkMIQOkNv7f-PZCays-148" vertex="1" connectable="0">
          <mxGeometry x="0.0198" y="-3" relative="1" as="geometry">
            <mxPoint as="offset" />
          </mxGeometry>
        </mxCell>
        <mxCell id="h5EkMIQOkNv7f-PZCays-150" value="" style="endArrow=none;html=1;rounded=0;entryX=0.5;entryY=1;entryDx=0;entryDy=0;exitX=1;exitY=0;exitDx=0;exitDy=0;" parent="1" source="h5EkMIQOkNv7f-PZCays-123" target="h5EkMIQOkNv7f-PZCays-140" edge="1">
          <mxGeometry width="50" height="50" relative="1" as="geometry">
            <mxPoint x="-3680" y="-25" as="sourcePoint" />
            <mxPoint x="-3720" y="-115" as="targetPoint" />
            <Array as="points" />
          </mxGeometry>
        </mxCell>
        <mxCell id="h5EkMIQOkNv7f-PZCays-151" value="&lt;b&gt;Diploma Thesis&lt;/b&gt;" style="ellipse;whiteSpace=wrap;html=1;" parent="1" vertex="1">
          <mxGeometry x="-4275" y="440" width="140" height="70" as="geometry" />
        </mxCell>
        <mxCell id="h5EkMIQOkNv7f-PZCays-152" value="" style="endArrow=none;html=1;rounded=0;entryX=0;entryY=0;entryDx=0;entryDy=0;exitX=1;exitY=1;exitDx=0;exitDy=0;exitPerimeter=0;" parent="1" source="h5EkMIQOkNv7f-PZCays-1" target="h5EkMIQOkNv7f-PZCays-151" edge="1">
          <mxGeometry width="50" height="50" relative="1" as="geometry">
            <mxPoint x="-4420" y="310" as="sourcePoint" />
            <mxPoint x="-3991" y="200" as="targetPoint" />
          </mxGeometry>
        </mxCell>
        <mxCell id="h5EkMIQOkNv7f-PZCays-153" value="&lt;b&gt;Check Enrollment Period&lt;/b&gt;" style="ellipse;whiteSpace=wrap;html=1;" parent="1" vertex="1">
          <mxGeometry x="-3980" y="400" width="140" height="70" as="geometry" />
        </mxCell>
        <mxCell id="h5EkMIQOkNv7f-PZCays-154" value="&lt;b&gt;Application&lt;/b&gt;" style="ellipse;whiteSpace=wrap;html=1;" parent="1" vertex="1">
          <mxGeometry x="-3770" y="410" width="140" height="70" as="geometry" />
        </mxCell>
        <mxCell id="h5EkMIQOkNv7f-PZCays-155" value="" style="endArrow=classic;html=1;rounded=0;exitX=1;exitY=0.5;exitDx=0;exitDy=0;entryX=0;entryY=0.5;entryDx=0;entryDy=0;" parent="1" source="h5EkMIQOkNv7f-PZCays-151" target="h5EkMIQOkNv7f-PZCays-153" edge="1">
          <mxGeometry width="50" height="50" relative="1" as="geometry">
            <mxPoint x="-4135" y="400" as="sourcePoint" />
            <mxPoint x="-4025" y="360" as="targetPoint" />
          </mxGeometry>
        </mxCell>
        <mxCell id="h5EkMIQOkNv7f-PZCays-156" value="&amp;lt;&amp;lt;include&amp;gt;&amp;gt;" style="edgeLabel;html=1;align=center;verticalAlign=middle;resizable=0;points=[];" parent="h5EkMIQOkNv7f-PZCays-155" vertex="1" connectable="0">
          <mxGeometry x="0.0198" y="-3" relative="1" as="geometry">
            <mxPoint as="offset" />
          </mxGeometry>
        </mxCell>
        <mxCell id="h5EkMIQOkNv7f-PZCays-157" value="" style="endArrow=classic;html=1;rounded=0;exitX=1;exitY=0.5;exitDx=0;exitDy=0;entryX=0;entryY=0;entryDx=0;entryDy=0;" parent="1" source="h5EkMIQOkNv7f-PZCays-153" target="h5EkMIQOkNv7f-PZCays-154" edge="1">
          <mxGeometry width="50" height="50" relative="1" as="geometry">
            <mxPoint x="-4070" y="455" as="sourcePoint" />
            <mxPoint x="-4000" y="425" as="targetPoint" />
          </mxGeometry>
        </mxCell>
        <mxCell id="h5EkMIQOkNv7f-PZCays-158" value="&amp;lt;&amp;lt;include&amp;gt;&amp;gt;" style="edgeLabel;html=1;align=center;verticalAlign=middle;resizable=0;points=[];" parent="h5EkMIQOkNv7f-PZCays-157" vertex="1" connectable="0">
          <mxGeometry x="0.0198" y="-3" relative="1" as="geometry">
            <mxPoint as="offset" />
          </mxGeometry>
        </mxCell>
        <mxCell id="h5EkMIQOkNv7f-PZCays-159" value="&lt;b&gt;Already Assigned to another Student&lt;/b&gt;" style="ellipse;whiteSpace=wrap;html=1;" parent="1" vertex="1">
          <mxGeometry x="-3870" y="515" width="140" height="70" as="geometry" />
        </mxCell>
        <mxCell id="h5EkMIQOkNv7f-PZCays-160" value="&lt;b&gt;Prerequisites not met&lt;/b&gt;" style="ellipse;whiteSpace=wrap;html=1;" parent="1" vertex="1">
          <mxGeometry x="-3650" y="560" width="140" height="70" as="geometry" />
        </mxCell>
        <mxCell id="h5EkMIQOkNv7f-PZCays-161" value="" style="endArrow=none;html=1;rounded=0;exitX=1;exitY=1;exitDx=0;exitDy=0;entryX=0.5;entryY=0;entryDx=0;entryDy=0;" parent="1" source="h5EkMIQOkNv7f-PZCays-154" target="h5EkMIQOkNv7f-PZCays-160" edge="1">
          <mxGeometry width="50" height="50" relative="1" as="geometry">
            <mxPoint x="-3440" y="440" as="sourcePoint" />
            <mxPoint x="-3309" y="555" as="targetPoint" />
            <Array as="points" />
          </mxGeometry>
        </mxCell>
        <mxCell id="h5EkMIQOkNv7f-PZCays-162" value="" style="endArrow=none;html=1;rounded=0;exitX=0;exitY=1;exitDx=0;exitDy=0;entryX=0.5;entryY=0;entryDx=0;entryDy=0;" parent="1" source="h5EkMIQOkNv7f-PZCays-154" target="h5EkMIQOkNv7f-PZCays-159" edge="1">
          <mxGeometry width="50" height="50" relative="1" as="geometry">
            <mxPoint x="-3641" y="480" as="sourcePoint" />
            <mxPoint x="-3560" y="525" as="targetPoint" />
            <Array as="points" />
          </mxGeometry>
        </mxCell>
        <mxCell id="h5EkMIQOkNv7f-PZCays-163" value="&lt;b&gt;Successfully Applied&lt;/b&gt;" style="ellipse;whiteSpace=wrap;html=1;" parent="1" vertex="1">
          <mxGeometry x="-4150" y="360" width="140" height="70" as="geometry" />
        </mxCell>
        <mxCell id="h5EkMIQOkNv7f-PZCays-164" value="&lt;b&gt;Unsuccessfully Applied&lt;/b&gt;" style="ellipse;whiteSpace=wrap;html=1;" parent="1" vertex="1">
          <mxGeometry x="-4070" y="515" width="140" height="70" as="geometry" />
        </mxCell>
        <mxCell id="h5EkMIQOkNv7f-PZCays-165" value="" style="endArrow=none;html=1;rounded=0;exitX=1;exitY=0;exitDx=0;exitDy=0;entryX=0.5;entryY=1;entryDx=0;entryDy=0;" parent="1" source="h5EkMIQOkNv7f-PZCays-151" target="h5EkMIQOkNv7f-PZCays-163" edge="1">
          <mxGeometry width="50" height="50" relative="1" as="geometry">
            <mxPoint x="-3641" y="480" as="sourcePoint" />
            <mxPoint x="-3560" y="525" as="targetPoint" />
            <Array as="points" />
          </mxGeometry>
        </mxCell>
        <mxCell id="h5EkMIQOkNv7f-PZCays-166" value="" style="endArrow=none;html=1;rounded=0;exitX=1;exitY=1;exitDx=0;exitDy=0;entryX=0.5;entryY=0;entryDx=0;entryDy=0;" parent="1" source="h5EkMIQOkNv7f-PZCays-151" target="h5EkMIQOkNv7f-PZCays-164" edge="1">
          <mxGeometry width="50" height="50" relative="1" as="geometry">
            <mxPoint x="-4146" y="460" as="sourcePoint" />
            <mxPoint x="-4070" y="440" as="targetPoint" />
            <Array as="points" />
          </mxGeometry>
        </mxCell>
        <mxCell id="h5EkMIQOkNv7f-PZCays-167" value="" style="endArrow=none;html=1;rounded=0;exitX=0.5;exitY=0;exitDx=0;exitDy=0;entryX=0.5;entryY=1;entryDx=0;entryDy=0;" parent="1" source="h5EkMIQOkNv7f-PZCays-163" target="h5EkMIQOkNv7f-PZCays-121" edge="1">
          <mxGeometry width="50" height="50" relative="1" as="geometry">
            <mxPoint x="-4146" y="460" as="sourcePoint" />
            <mxPoint x="-4070" y="440" as="targetPoint" />
            <Array as="points" />
          </mxGeometry>
        </mxCell>
        <mxCell id="h5EkMIQOkNv7f-PZCays-168" value="" style="endArrow=none;html=1;rounded=0;exitX=0.5;exitY=1;exitDx=0;exitDy=0;entryX=1;entryY=0;entryDx=0;entryDy=0;" parent="1" source="h5EkMIQOkNv7f-PZCays-153" target="h5EkMIQOkNv7f-PZCays-164" edge="1">
          <mxGeometry width="50" height="50" relative="1" as="geometry">
            <mxPoint x="-3641" y="480" as="sourcePoint" />
            <mxPoint x="-3560" y="525" as="targetPoint" />
            <Array as="points" />
          </mxGeometry>
        </mxCell>
        <mxCell id="h5EkMIQOkNv7f-PZCays-169" value="" style="endArrow=none;html=1;rounded=0;exitX=1;exitY=0.5;exitDx=0;exitDy=0;entryX=0;entryY=0.5;entryDx=0;entryDy=0;" parent="1" source="h5EkMIQOkNv7f-PZCays-164" target="h5EkMIQOkNv7f-PZCays-159" edge="1">
          <mxGeometry width="50" height="50" relative="1" as="geometry">
            <mxPoint x="-4146" y="510" as="sourcePoint" />
            <mxPoint x="-3990" y="525" as="targetPoint" />
            <Array as="points" />
          </mxGeometry>
        </mxCell>
        <mxCell id="h5EkMIQOkNv7f-PZCays-170" value="" style="endArrow=none;html=1;rounded=0;exitX=1;exitY=1;exitDx=0;exitDy=0;entryX=0.5;entryY=1;entryDx=0;entryDy=0;" parent="1" source="h5EkMIQOkNv7f-PZCays-164" target="h5EkMIQOkNv7f-PZCays-160" edge="1">
          <mxGeometry width="50" height="50" relative="1" as="geometry">
            <mxPoint x="-3920" y="560" as="sourcePoint" />
            <mxPoint x="-3860" y="560" as="targetPoint" />
            <Array as="points" />
          </mxGeometry>
        </mxCell>
        <mxCell id="h5EkMIQOkNv7f-PZCays-172" value="&lt;b&gt;Student is in userSubjectProfile Menu and presses &#39;My Team&#39; Button form the Menu&lt;/b&gt;" style="rounded=1;whiteSpace=wrap;html=1;" parent="1" vertex="1">
          <mxGeometry x="-3360" y="85" width="120" height="70" as="geometry" />
        </mxCell>
        <mxCell id="h5EkMIQOkNv7f-PZCays-173" value="" style="endArrow=none;dashed=1;html=1;rounded=0;exitX=0;exitY=0.75;exitDx=0;exitDy=0;entryX=1;entryY=0.5;entryDx=0;entryDy=0;" parent="1" source="h5EkMIQOkNv7f-PZCays-172" target="h5EkMIQOkNv7f-PZCays-121" edge="1">
          <mxGeometry width="50" height="50" relative="1" as="geometry">
            <mxPoint x="-3180" y="5" as="sourcePoint" />
            <mxPoint x="-3290" y="55" as="targetPoint" />
          </mxGeometry>
        </mxCell>
        <mxCell id="h5EkMIQOkNv7f-PZCays-174" value="&lt;b&gt;Distance Learning&lt;/b&gt;" style="ellipse;whiteSpace=wrap;html=1;" parent="1" vertex="1">
          <mxGeometry x="-4260" y="700" width="140" height="70" as="geometry" />
        </mxCell>
        <mxCell id="h5EkMIQOkNv7f-PZCays-176" value="" style="endArrow=none;html=1;rounded=0;entryX=0;entryY=0;entryDx=0;entryDy=0;exitX=0;exitY=1;exitDx=0;exitDy=0;exitPerimeter=0;" parent="1" source="h5EkMIQOkNv7f-PZCays-1" target="h5EkMIQOkNv7f-PZCays-174" edge="1">
          <mxGeometry width="50" height="50" relative="1" as="geometry">
            <mxPoint x="-4560" y="350" as="sourcePoint" />
            <mxPoint x="-4245" y="461" as="targetPoint" />
          </mxGeometry>
        </mxCell>
        <mxCell id="h5EkMIQOkNv7f-PZCays-177" value="" style="endArrow=none;dashed=1;html=1;rounded=0;entryX=0;entryY=0.5;entryDx=0;entryDy=0;exitX=1;exitY=0.25;exitDx=0;exitDy=0;" parent="1" source="h5EkMIQOkNv7f-PZCays-184" target="h5EkMIQOkNv7f-PZCays-174" edge="1">
          <mxGeometry width="50" height="50" relative="1" as="geometry">
            <mxPoint x="-4050" y="687.5" as="sourcePoint" />
            <mxPoint x="-4130" y="710" as="targetPoint" />
          </mxGeometry>
        </mxCell>
        <mxCell id="h5EkMIQOkNv7f-PZCays-179" value="" style="endArrow=classic;html=1;rounded=0;exitX=0;exitY=1;exitDx=0;exitDy=0;entryX=1;entryY=0;entryDx=0;entryDy=0;" parent="1" source="h5EkMIQOkNv7f-PZCays-189" target="h5EkMIQOkNv7f-PZCays-190" edge="1">
          <mxGeometry width="50" height="50" relative="1" as="geometry">
            <mxPoint x="-4125" y="485" as="sourcePoint" />
            <mxPoint x="-4115.209556660146" y="830.6125010507862" as="targetPoint" />
          </mxGeometry>
        </mxCell>
        <mxCell id="h5EkMIQOkNv7f-PZCays-180" value="&amp;lt;&amp;lt;include&amp;gt;&amp;gt;" style="edgeLabel;html=1;align=center;verticalAlign=middle;resizable=0;points=[];" parent="h5EkMIQOkNv7f-PZCays-179" vertex="1" connectable="0">
          <mxGeometry x="0.0198" y="-3" relative="1" as="geometry">
            <mxPoint as="offset" />
          </mxGeometry>
        </mxCell>
        <mxCell id="h5EkMIQOkNv7f-PZCays-181" value="&lt;b&gt;Meeting Canceled&lt;/b&gt;" style="ellipse;whiteSpace=wrap;html=1;" parent="1" vertex="1">
          <mxGeometry x="-3820" y="790" width="140" height="70" as="geometry" />
        </mxCell>
        <mxCell id="h5EkMIQOkNv7f-PZCays-182" value="&lt;b&gt;Meeting starts in 1 hour&lt;/b&gt;" style="ellipse;whiteSpace=wrap;html=1;" parent="1" vertex="1">
          <mxGeometry x="-3910" y="880" width="140" height="70" as="geometry" />
        </mxCell>
        <mxCell id="h5EkMIQOkNv7f-PZCays-184" value="&lt;b&gt;Student presses the &#39;Attend to Lecture&#39; Button form userSubjectProfile Menu&lt;/b&gt;" style="rounded=1;whiteSpace=wrap;html=1;" parent="1" vertex="1">
          <mxGeometry x="-4430" y="690" width="120" height="70" as="geometry" />
        </mxCell>
        <mxCell id="h5EkMIQOkNv7f-PZCays-185" value="" style="endArrow=classic;html=1;rounded=0;exitX=1;exitY=0.5;exitDx=0;exitDy=0;entryX=0;entryY=0.5;entryDx=0;entryDy=0;" parent="1" source="h5EkMIQOkNv7f-PZCays-174" target="h5EkMIQOkNv7f-PZCays-189" edge="1">
          <mxGeometry width="50" height="50" relative="1" as="geometry">
            <mxPoint x="-4180" y="780" as="sourcePoint" />
            <mxPoint x="-4020.209556660146" y="739.3874989492142" as="targetPoint" />
          </mxGeometry>
        </mxCell>
        <mxCell id="h5EkMIQOkNv7f-PZCays-186" value="&amp;lt;&amp;lt;include&amp;gt;&amp;gt;" style="edgeLabel;html=1;align=center;verticalAlign=middle;resizable=0;points=[];" parent="h5EkMIQOkNv7f-PZCays-185" vertex="1" connectable="0">
          <mxGeometry x="0.0198" y="-3" relative="1" as="geometry">
            <mxPoint as="offset" />
          </mxGeometry>
        </mxCell>
        <mxCell id="h5EkMIQOkNv7f-PZCays-187" value="&amp;lt;&amp;lt;extend&amp;gt;&amp;gt;" style="endArrow=open;endSize=12;dashed=1;html=1;rounded=0;entryX=0;entryY=0.5;entryDx=0;entryDy=0;exitX=1;exitY=1;exitDx=0;exitDy=0;" parent="1" source="h5EkMIQOkNv7f-PZCays-189" target="h5EkMIQOkNv7f-PZCays-181" edge="1">
          <mxGeometry width="160" relative="1" as="geometry">
            <mxPoint x="-3960" y="820" as="sourcePoint" />
            <mxPoint x="-3740" y="790" as="targetPoint" />
            <Array as="points" />
          </mxGeometry>
        </mxCell>
        <mxCell id="h5EkMIQOkNv7f-PZCays-188" value="&amp;lt;&amp;lt;extend&amp;gt;&amp;gt;" style="endArrow=open;endSize=12;dashed=1;html=1;rounded=0;entryX=0;entryY=0;entryDx=0;entryDy=0;exitX=0.5;exitY=1;exitDx=0;exitDy=0;" parent="1" source="h5EkMIQOkNv7f-PZCays-189" target="h5EkMIQOkNv7f-PZCays-182" edge="1">
          <mxGeometry width="160" relative="1" as="geometry">
            <mxPoint x="-4065" y="890" as="sourcePoint" />
            <mxPoint x="-3890" y="875" as="targetPoint" />
            <Array as="points" />
          </mxGeometry>
        </mxCell>
        <mxCell id="h5EkMIQOkNv7f-PZCays-189" value="&lt;b&gt;Check Meeting Schedule&lt;/b&gt;" style="ellipse;whiteSpace=wrap;html=1;" parent="1" vertex="1">
          <mxGeometry x="-3995" y="700" width="140" height="70" as="geometry" />
        </mxCell>
        <mxCell id="h5EkMIQOkNv7f-PZCays-190" value="&lt;b&gt;Students Enters Lobby&lt;/b&gt;" style="ellipse;whiteSpace=wrap;html=1;" parent="1" vertex="1">
          <mxGeometry x="-4110" y="820" width="140" height="70" as="geometry" />
        </mxCell>
        <mxCell id="h5EkMIQOkNv7f-PZCays-191" value="" style="endArrow=none;html=1;rounded=0;exitX=1;exitY=1;exitDx=0;exitDy=0;exitPerimeter=0;entryX=0;entryY=0;entryDx=0;entryDy=0;" parent="1" source="h5EkMIQOkNv7f-PZCays-8" target="FGMAEnWzAYJxEoyZuGy0-146" edge="1">
          <mxGeometry width="50" height="50" relative="1" as="geometry">
            <mxPoint x="-4590" y="350" as="sourcePoint" />
            <mxPoint x="-4400" y="840" as="targetPoint" />
          </mxGeometry>
        </mxCell>
        <mxCell id="h5EkMIQOkNv7f-PZCays-192" value="&lt;b&gt;Teachers accepts student to Lecture&lt;/b&gt;" style="ellipse;whiteSpace=wrap;html=1;" parent="1" vertex="1">
          <mxGeometry x="-4340" y="830" width="140" height="70" as="geometry" />
        </mxCell>
        <mxCell id="h5EkMIQOkNv7f-PZCays-193" value="" style="endArrow=none;html=1;rounded=0;exitX=1;exitY=1;exitDx=0;exitDy=0;entryX=0;entryY=0;entryDx=0;entryDy=0;" parent="1" source="h5EkMIQOkNv7f-PZCays-192" target="h5EkMIQOkNv7f-PZCays-195" edge="1">
          <mxGeometry width="50" height="50" relative="1" as="geometry">
            <mxPoint x="-4450" y="939" as="sourcePoint" />
            <mxPoint x="-4160" y="960" as="targetPoint" />
          </mxGeometry>
        </mxCell>
        <mxCell id="h5EkMIQOkNv7f-PZCays-194" value="" style="endArrow=none;html=1;rounded=0;exitX=0.5;exitY=1;exitDx=0;exitDy=0;entryX=1;entryY=0;entryDx=0;entryDy=0;" parent="1" source="h5EkMIQOkNv7f-PZCays-190" target="h5EkMIQOkNv7f-PZCays-195" edge="1">
          <mxGeometry width="50" height="50" relative="1" as="geometry">
            <mxPoint x="-4210" y="899" as="sourcePoint" />
            <mxPoint x="-4090" y="960" as="targetPoint" />
          </mxGeometry>
        </mxCell>
        <mxCell id="h5EkMIQOkNv7f-PZCays-195" value="&lt;b&gt;Lecture Call Starts&lt;/b&gt;" style="ellipse;whiteSpace=wrap;html=1;" parent="1" vertex="1">
          <mxGeometry x="-4190" y="930" width="140" height="70" as="geometry" />
        </mxCell>
        <mxCell id="h5EkMIQOkNv7f-PZCays-196" value="&lt;b&gt;successfull Attendance&lt;/b&gt;" style="ellipse;whiteSpace=wrap;html=1;" parent="1" vertex="1">
          <mxGeometry x="-4100" y="1035" width="140" height="70" as="geometry" />
        </mxCell>
        <mxCell id="h5EkMIQOkNv7f-PZCays-197" value="&lt;b&gt;Unsuccessfull Attendance&lt;/b&gt;" style="ellipse;whiteSpace=wrap;html=1;" parent="1" vertex="1">
          <mxGeometry x="-3707.25" y="880" width="140" height="70" as="geometry" />
        </mxCell>
        <mxCell id="h5EkMIQOkNv7f-PZCays-198" value="" style="endArrow=none;html=1;rounded=0;exitX=0.5;exitY=1;exitDx=0;exitDy=0;entryX=0;entryY=0;entryDx=0;entryDy=0;" parent="1" source="h5EkMIQOkNv7f-PZCays-195" target="h5EkMIQOkNv7f-PZCays-196" edge="1">
          <mxGeometry width="50" height="50" relative="1" as="geometry">
            <mxPoint x="-4560" y="650" as="sourcePoint" />
            <mxPoint x="-4330" y="875" as="targetPoint" />
          </mxGeometry>
        </mxCell>
        <mxCell id="h5EkMIQOkNv7f-PZCays-199" value="" style="endArrow=none;html=1;rounded=0;exitX=1;exitY=1;exitDx=0;exitDy=0;entryX=0;entryY=0.5;entryDx=0;entryDy=0;" parent="1" source="h5EkMIQOkNv7f-PZCays-182" target="h5EkMIQOkNv7f-PZCays-197" edge="1">
          <mxGeometry width="50" height="50" relative="1" as="geometry">
            <mxPoint x="-4110" y="1010" as="sourcePoint" />
            <mxPoint x="-4070" y="1056" as="targetPoint" />
          </mxGeometry>
        </mxCell>
        <mxCell id="h5EkMIQOkNv7f-PZCays-200" value="" style="endArrow=none;html=1;rounded=0;exitX=1;exitY=0;exitDx=0;exitDy=0;entryX=0.5;entryY=1;entryDx=0;entryDy=0;" parent="1" source="h5EkMIQOkNv7f-PZCays-196" target="h5EkMIQOkNv7f-PZCays-174" edge="1">
          <mxGeometry width="50" height="50" relative="1" as="geometry">
            <mxPoint x="-3610" y="850" as="sourcePoint" />
            <mxPoint x="-3560" y="800" as="targetPoint" />
          </mxGeometry>
        </mxCell>
        <mxCell id="h5EkMIQOkNv7f-PZCays-201" value="" style="endArrow=none;html=1;rounded=0;exitX=0;exitY=0;exitDx=0;exitDy=0;entryX=1;entryY=1;entryDx=0;entryDy=0;" parent="1" source="h5EkMIQOkNv7f-PZCays-197" target="h5EkMIQOkNv7f-PZCays-174" edge="1">
          <mxGeometry width="50" height="50" relative="1" as="geometry">
            <mxPoint x="-3970" y="1056" as="sourcePoint" />
            <mxPoint x="-4180" y="780" as="targetPoint" />
          </mxGeometry>
        </mxCell>
        <mxCell id="HH1YXsrw8nlJTsVdC53J-1" value="" style="endArrow=none;html=1;rounded=0;exitX=1;exitY=0;exitDx=0;exitDy=0;entryX=0.5;entryY=0;entryDx=0;entryDy=0;" parent="1" source="h5EkMIQOkNv7f-PZCays-163" target="h5EkMIQOkNv7f-PZCays-154" edge="1">
          <mxGeometry width="50" height="50" relative="1" as="geometry">
            <mxPoint x="-3640" y="479" as="sourcePoint" />
            <mxPoint x="-3570" y="570" as="targetPoint" />
            <Array as="points" />
          </mxGeometry>
        </mxCell>
        <mxCell id="HH1YXsrw8nlJTsVdC53J-2" value="" style="endArrow=none;html=1;rounded=0;exitX=0.5;exitY=0;exitDx=0;exitDy=0;entryX=0;entryY=1;entryDx=0;entryDy=0;" parent="1" source="h5EkMIQOkNv7f-PZCays-21" target="h5EkMIQOkNv7f-PZCays-36" edge="1">
          <mxGeometry width="50" height="50" relative="1" as="geometry">
            <mxPoint x="-3260" y="725" as="sourcePoint" />
            <mxPoint x="-3140" y="665" as="targetPoint" />
            <Array as="points" />
          </mxGeometry>
        </mxCell>
        <mxCell id="HH1YXsrw8nlJTsVdC53J-3" value="" style="endArrow=none;html=1;rounded=0;exitX=0.5;exitY=0;exitDx=0;exitDy=0;entryX=1;entryY=1;entryDx=0;entryDy=0;" parent="1" source="h5EkMIQOkNv7f-PZCays-43" target="h5EkMIQOkNv7f-PZCays-52" edge="1">
          <mxGeometry width="50" height="50" relative="1" as="geometry">
            <mxPoint x="-3250" y="735" as="sourcePoint" />
            <mxPoint x="-3130" y="675" as="targetPoint" />
            <Array as="points" />
          </mxGeometry>
        </mxCell>
        <mxCell id="HH1YXsrw8nlJTsVdC53J-4" value="" style="endArrow=none;html=1;rounded=0;exitX=0.5;exitY=0;exitDx=0;exitDy=0;entryX=0.5;entryY=1;entryDx=0;entryDy=0;" parent="1" source="h5EkMIQOkNv7f-PZCays-44" target="h5EkMIQOkNv7f-PZCays-52" edge="1">
          <mxGeometry width="50" height="50" relative="1" as="geometry">
            <mxPoint x="-2880" y="810" as="sourcePoint" />
            <mxPoint x="-3000" y="794" as="targetPoint" />
            <Array as="points" />
          </mxGeometry>
        </mxCell>
        <mxCell id="HH1YXsrw8nlJTsVdC53J-5" value="" style="endArrow=none;html=1;rounded=0;exitX=1;exitY=0;exitDx=0;exitDy=0;entryX=0.5;entryY=1;entryDx=0;entryDy=0;" parent="1" source="h5EkMIQOkNv7f-PZCays-45" target="h5EkMIQOkNv7f-PZCays-52" edge="1">
          <mxGeometry width="50" height="50" relative="1" as="geometry">
            <mxPoint x="-2900" y="900" as="sourcePoint" />
            <mxPoint x="-3050" y="805" as="targetPoint" />
            <Array as="points" />
          </mxGeometry>
        </mxCell>
        <mxCell id="FGMAEnWzAYJxEoyZuGy0-1" value="&lt;b&gt;no emergency notifications&lt;/b&gt;" style="ellipse;whiteSpace=wrap;html=1;" vertex="1" parent="1">
          <mxGeometry x="-4310" y="-260" width="140" height="70" as="geometry" />
        </mxCell>
        <mxCell id="FGMAEnWzAYJxEoyZuGy0-2" value="&amp;lt;&amp;lt;extend&amp;gt;&amp;gt;" style="endArrow=open;endSize=12;dashed=1;html=1;rounded=0;entryX=0.5;entryY=1;entryDx=0;entryDy=0;exitX=0.5;exitY=0;exitDx=0;exitDy=0;" edge="1" parent="1" source="h5EkMIQOkNv7f-PZCays-101" target="FGMAEnWzAYJxEoyZuGy0-1">
          <mxGeometry width="160" relative="1" as="geometry">
            <mxPoint x="-4290" y="-40" as="sourcePoint" />
            <mxPoint x="-4100" y="-110" as="targetPoint" />
          </mxGeometry>
        </mxCell>
        <mxCell id="FGMAEnWzAYJxEoyZuGy0-3" value="" style="endArrow=none;html=1;rounded=0;exitX=0.5;exitY=0;exitDx=0;exitDy=0;entryX=1;entryY=1;entryDx=0;entryDy=0;" edge="1" parent="1" source="h5EkMIQOkNv7f-PZCays-112" target="FGMAEnWzAYJxEoyZuGy0-1">
          <mxGeometry width="50" height="50" relative="1" as="geometry">
            <mxPoint x="-4810" y="250" as="sourcePoint" />
            <mxPoint x="-4780" y="90" as="targetPoint" />
            <Array as="points" />
          </mxGeometry>
        </mxCell>
        <mxCell id="FGMAEnWzAYJxEoyZuGy0-4" value="" style="endArrow=none;html=1;rounded=0;exitX=1;exitY=0;exitDx=0;exitDy=0;entryX=0;entryY=1;entryDx=0;entryDy=0;" edge="1" parent="1" source="h5EkMIQOkNv7f-PZCays-112" target="h5EkMIQOkNv7f-PZCays-106">
          <mxGeometry width="50" height="50" relative="1" as="geometry">
            <mxPoint x="-4190" y="60" as="sourcePoint" />
            <mxPoint x="-4180" y="-191" as="targetPoint" />
            <Array as="points" />
          </mxGeometry>
        </mxCell>
        <mxCell id="FGMAEnWzAYJxEoyZuGy0-5" value="" style="endArrow=none;html=1;rounded=0;exitX=1;exitY=0;exitDx=0;exitDy=0;entryX=0;entryY=1;entryDx=0;entryDy=0;" edge="1" parent="1" source="h5EkMIQOkNv7f-PZCays-112" target="h5EkMIQOkNv7f-PZCays-107">
          <mxGeometry width="50" height="50" relative="1" as="geometry">
            <mxPoint x="-4140" y="71" as="sourcePoint" />
            <mxPoint x="-4150" y="-121" as="targetPoint" />
            <Array as="points" />
          </mxGeometry>
        </mxCell>
        <mxCell id="FGMAEnWzAYJxEoyZuGy0-6" value="" style="endArrow=none;html=1;rounded=0;exitX=1;exitY=0.5;exitDx=0;exitDy=0;entryX=0;entryY=1;entryDx=0;entryDy=0;" edge="1" parent="1" source="h5EkMIQOkNv7f-PZCays-112" target="h5EkMIQOkNv7f-PZCays-108">
          <mxGeometry width="50" height="50" relative="1" as="geometry">
            <mxPoint x="-4140" y="71" as="sourcePoint" />
            <mxPoint x="-4090" y="-21" as="targetPoint" />
            <Array as="points" />
          </mxGeometry>
        </mxCell>
        <mxCell id="FGMAEnWzAYJxEoyZuGy0-7" value="" style="endArrow=none;html=1;rounded=0;entryX=0;entryY=1;entryDx=0;entryDy=0;exitX=1;exitY=0.5;exitDx=0;exitDy=0;" edge="1" parent="1" source="h5EkMIQOkNv7f-PZCays-129" target="h5EkMIQOkNv7f-PZCays-142">
          <mxGeometry width="50" height="50" relative="1" as="geometry">
            <mxPoint x="-3630" y="-14" as="sourcePoint" />
            <mxPoint x="-3540" y="-115" as="targetPoint" />
            <Array as="points" />
          </mxGeometry>
        </mxCell>
        <mxCell id="FGMAEnWzAYJxEoyZuGy0-8" value="" style="endArrow=none;html=1;rounded=0;entryX=0;entryY=1;entryDx=0;entryDy=0;exitX=0.5;exitY=0;exitDx=0;exitDy=0;" edge="1" parent="1" source="h5EkMIQOkNv7f-PZCays-129" target="h5EkMIQOkNv7f-PZCays-141">
          <mxGeometry width="50" height="50" relative="1" as="geometry">
            <mxPoint x="-3650" y="-150" as="sourcePoint" />
            <mxPoint x="-3510" y="-281" as="targetPoint" />
            <Array as="points" />
          </mxGeometry>
        </mxCell>
        <mxCell id="FGMAEnWzAYJxEoyZuGy0-10" value="" style="endArrow=none;html=1;rounded=0;exitX=0.75;exitY=0.1;exitDx=0;exitDy=0;exitPerimeter=0;entryX=0;entryY=1;entryDx=0;entryDy=0;" edge="1" parent="1" source="h5EkMIQOkNv7f-PZCays-1" target="FGMAEnWzAYJxEoyZuGy0-23">
          <mxGeometry width="50" height="50" relative="1" as="geometry">
            <mxPoint x="-4590" y="310" as="sourcePoint" />
            <mxPoint x="-3090" y="180" as="targetPoint" />
          </mxGeometry>
        </mxCell>
        <mxCell id="FGMAEnWzAYJxEoyZuGy0-11" value="" style="endArrow=none;html=1;rounded=0;exitX=1;exitY=0.5;exitDx=0;exitDy=0;entryX=0;entryY=0;entryDx=0;entryDy=0;" edge="1" parent="1" source="h5EkMIQOkNv7f-PZCays-125" target="FGMAEnWzAYJxEoyZuGy0-23">
          <mxGeometry width="50" height="50" relative="1" as="geometry">
            <mxPoint x="-3150" y="-90" as="sourcePoint" />
            <mxPoint x="-3130" y="60" as="targetPoint" />
            <Array as="points" />
          </mxGeometry>
        </mxCell>
        <mxCell id="FGMAEnWzAYJxEoyZuGy0-12" value="" style="endArrow=none;dashed=1;html=1;dashPattern=1 3;strokeWidth=2;rounded=0;strokeColor=#FF0000;" edge="1" parent="1">
          <mxGeometry width="50" height="50" relative="1" as="geometry">
            <mxPoint x="-3820" y="170" as="sourcePoint" />
            <mxPoint x="-3820" y="-290" as="targetPoint" />
          </mxGeometry>
        </mxCell>
        <mxCell id="FGMAEnWzAYJxEoyZuGy0-13" value="" style="endArrow=none;dashed=1;html=1;dashPattern=1 3;strokeWidth=2;rounded=0;strokeColor=#FF0000;" edge="1" parent="1">
          <mxGeometry width="50" height="50" relative="1" as="geometry">
            <mxPoint x="-3820" y="180" as="sourcePoint" />
            <mxPoint x="-4520" y="180" as="targetPoint" />
          </mxGeometry>
        </mxCell>
        <mxCell id="FGMAEnWzAYJxEoyZuGy0-14" value="" style="endArrow=none;dashed=1;html=1;dashPattern=1 3;strokeWidth=2;rounded=0;strokeColor=#FF0000;" edge="1" parent="1">
          <mxGeometry width="50" height="50" relative="1" as="geometry">
            <mxPoint x="-4510" y="-290" as="sourcePoint" />
            <mxPoint x="-4510" y="190" as="targetPoint" />
          </mxGeometry>
        </mxCell>
        <mxCell id="FGMAEnWzAYJxEoyZuGy0-15" value="" style="endArrow=none;dashed=1;html=1;dashPattern=1 3;strokeWidth=2;rounded=0;strokeColor=#FF0000;" edge="1" parent="1">
          <mxGeometry width="50" height="50" relative="1" as="geometry">
            <mxPoint x="-3820" y="-290" as="sourcePoint" />
            <mxPoint x="-4510" y="-290" as="targetPoint" />
          </mxGeometry>
        </mxCell>
        <mxCell id="FGMAEnWzAYJxEoyZuGy0-16" value="" style="line;strokeWidth=2;html=1;rotation=-90;" vertex="1" parent="1">
          <mxGeometry x="-5647.63" y="643.48" width="2199.29" height="60" as="geometry" />
        </mxCell>
        <mxCell id="FGMAEnWzAYJxEoyZuGy0-17" value="" style="line;strokeWidth=2;html=1;rotation=-90;direction=south;" vertex="1" parent="1">
          <mxGeometry x="-2650" y="-2341.5" width="60" height="3851.5" as="geometry" />
        </mxCell>
        <mxCell id="FGMAEnWzAYJxEoyZuGy0-18" value="&lt;b&gt;Camera &amp;amp; Microphone Authorization&lt;/b&gt;" style="ellipse;whiteSpace=wrap;html=1;" vertex="1" parent="1">
          <mxGeometry x="-2860" y="20" width="140" height="70" as="geometry" />
        </mxCell>
        <mxCell id="FGMAEnWzAYJxEoyZuGy0-19" value="" style="endArrow=classic;html=1;rounded=0;exitX=1;exitY=0;exitDx=0;exitDy=0;entryX=0;entryY=0.5;entryDx=0;entryDy=0;" edge="1" parent="1" source="FGMAEnWzAYJxEoyZuGy0-23" target="FGMAEnWzAYJxEoyZuGy0-18">
          <mxGeometry width="50" height="50" relative="1" as="geometry">
            <mxPoint x="-2760.5025253169415" y="45.251262658471205" as="sourcePoint" />
            <mxPoint x="-3460" y="-270" as="targetPoint" />
          </mxGeometry>
        </mxCell>
        <mxCell id="FGMAEnWzAYJxEoyZuGy0-20" value="&amp;lt;&amp;lt;include&amp;gt;&amp;gt;" style="edgeLabel;html=1;align=center;verticalAlign=middle;resizable=0;points=[];" vertex="1" connectable="0" parent="FGMAEnWzAYJxEoyZuGy0-19">
          <mxGeometry x="0.0198" y="-3" relative="1" as="geometry">
            <mxPoint as="offset" />
          </mxGeometry>
        </mxCell>
        <mxCell id="FGMAEnWzAYJxEoyZuGy0-21" value="&lt;b&gt;Student is in userSubjectProfileMenu, has pressed &#39;My Team&#39; Button form the Menu and wants to Attend a Call&lt;/b&gt;" style="rounded=1;whiteSpace=wrap;html=1;" vertex="1" parent="1">
          <mxGeometry x="-3140" y="-100" width="160" height="70" as="geometry" />
        </mxCell>
        <mxCell id="FGMAEnWzAYJxEoyZuGy0-22" value="" style="endArrow=none;dashed=1;html=1;rounded=0;exitX=0.75;exitY=1;exitDx=0;exitDy=0;entryX=0.5;entryY=0;entryDx=0;entryDy=0;" edge="1" parent="1" source="FGMAEnWzAYJxEoyZuGy0-21" target="FGMAEnWzAYJxEoyZuGy0-23">
          <mxGeometry width="50" height="50" relative="1" as="geometry">
            <mxPoint x="-3340" y="138" as="sourcePoint" />
            <mxPoint x="-3100" y="50" as="targetPoint" />
          </mxGeometry>
        </mxCell>
        <mxCell id="FGMAEnWzAYJxEoyZuGy0-23" value="&lt;b&gt;Co-Share Call Interaction&lt;/b&gt;" style="ellipse;whiteSpace=wrap;html=1;" vertex="1" parent="1">
          <mxGeometry x="-3130" y="90" width="140" height="70" as="geometry" />
        </mxCell>
        <mxCell id="FGMAEnWzAYJxEoyZuGy0-24" value="" style="endArrow=none;dashed=1;html=1;dashPattern=1 3;strokeWidth=2;rounded=0;strokeColor=#FF0000;" edge="1" parent="1">
          <mxGeometry width="50" height="50" relative="1" as="geometry">
            <mxPoint x="-3160" y="170" as="sourcePoint" />
            <mxPoint x="-3160" y="-390" as="targetPoint" />
          </mxGeometry>
        </mxCell>
        <mxCell id="FGMAEnWzAYJxEoyZuGy0-25" value="" style="endArrow=none;dashed=1;html=1;dashPattern=1 3;strokeWidth=2;rounded=0;strokeColor=#FF0000;" edge="1" parent="1">
          <mxGeometry width="50" height="50" relative="1" as="geometry">
            <mxPoint x="-3200" y="180" as="sourcePoint" />
            <mxPoint x="-3200" y="-380" as="targetPoint" />
          </mxGeometry>
        </mxCell>
        <mxCell id="FGMAEnWzAYJxEoyZuGy0-26" value="" style="endArrow=none;dashed=1;html=1;dashPattern=1 3;strokeWidth=2;rounded=0;strokeColor=#FF0000;" edge="1" parent="1">
          <mxGeometry width="50" height="50" relative="1" as="geometry">
            <mxPoint x="-3200" y="190" as="sourcePoint" />
            <mxPoint x="-3810" y="200" as="targetPoint" />
          </mxGeometry>
        </mxCell>
        <mxCell id="FGMAEnWzAYJxEoyZuGy0-27" value="" style="endArrow=none;dashed=1;html=1;dashPattern=1 3;strokeWidth=2;rounded=0;strokeColor=#FF0000;" edge="1" parent="1">
          <mxGeometry width="50" height="50" relative="1" as="geometry">
            <mxPoint x="-3800" y="-380" as="sourcePoint" />
            <mxPoint x="-3800" y="200" as="targetPoint" />
          </mxGeometry>
        </mxCell>
        <mxCell id="FGMAEnWzAYJxEoyZuGy0-28" value="" style="endArrow=none;dashed=1;html=1;dashPattern=1 3;strokeWidth=2;rounded=0;strokeColor=#FF0000;" edge="1" parent="1">
          <mxGeometry width="50" height="50" relative="1" as="geometry">
            <mxPoint x="-3800" y="-380" as="sourcePoint" />
            <mxPoint x="-3200" y="-380" as="targetPoint" />
          </mxGeometry>
        </mxCell>
        <mxCell id="FGMAEnWzAYJxEoyZuGy0-29" value="&lt;b&gt;Student Denies Access&lt;/b&gt;" style="ellipse;whiteSpace=wrap;html=1;" vertex="1" parent="1">
          <mxGeometry x="-2840" y="-90" width="140" height="70" as="geometry" />
        </mxCell>
        <mxCell id="FGMAEnWzAYJxEoyZuGy0-30" value="&lt;b&gt;Student Accepts Access&lt;/b&gt;" style="ellipse;whiteSpace=wrap;html=1;" vertex="1" parent="1">
          <mxGeometry x="-2680" y="15" width="140" height="70" as="geometry" />
        </mxCell>
        <mxCell id="FGMAEnWzAYJxEoyZuGy0-31" value="" style="endArrow=none;html=1;rounded=0;exitX=1;exitY=0;exitDx=0;exitDy=0;entryX=0;entryY=1;entryDx=0;entryDy=0;" edge="1" parent="1" source="h5EkMIQOkNv7f-PZCays-121" target="FGMAEnWzAYJxEoyZuGy0-29">
          <mxGeometry width="50" height="50" relative="1" as="geometry">
            <mxPoint x="-3230" y="-10" as="sourcePoint" />
            <mxPoint x="-3099" y="110" as="targetPoint" />
            <Array as="points" />
          </mxGeometry>
        </mxCell>
        <mxCell id="FGMAEnWzAYJxEoyZuGy0-32" value="" style="endArrow=none;html=1;rounded=0;exitX=0.5;exitY=0;exitDx=0;exitDy=0;entryX=0.5;entryY=1;entryDx=0;entryDy=0;" edge="1" parent="1" source="FGMAEnWzAYJxEoyZuGy0-18" target="FGMAEnWzAYJxEoyZuGy0-29">
          <mxGeometry width="50" height="50" relative="1" as="geometry">
            <mxPoint x="-3431" y="105" as="sourcePoint" />
            <mxPoint x="-2809" y="-45" as="targetPoint" />
            <Array as="points" />
          </mxGeometry>
        </mxCell>
        <mxCell id="FGMAEnWzAYJxEoyZuGy0-33" value="" style="endArrow=none;html=1;rounded=0;exitX=1;exitY=0;exitDx=0;exitDy=0;entryX=0;entryY=0;entryDx=0;entryDy=0;" edge="1" parent="1" source="FGMAEnWzAYJxEoyZuGy0-18" target="FGMAEnWzAYJxEoyZuGy0-30">
          <mxGeometry width="50" height="50" relative="1" as="geometry">
            <mxPoint x="-2780" y="30" as="sourcePoint" />
            <mxPoint x="-2760" y="-35" as="targetPoint" />
            <Array as="points" />
          </mxGeometry>
        </mxCell>
        <mxCell id="FGMAEnWzAYJxEoyZuGy0-34" value="&lt;b&gt;Uses Share Screen&lt;/b&gt;" style="ellipse;whiteSpace=wrap;html=1;" vertex="1" parent="1">
          <mxGeometry x="-2420" y="85" width="140" height="70" as="geometry" />
        </mxCell>
        <mxCell id="FGMAEnWzAYJxEoyZuGy0-35" value="&lt;b&gt;Uses Microphone&lt;/b&gt;" style="ellipse;whiteSpace=wrap;html=1;" vertex="1" parent="1">
          <mxGeometry x="-2450" y="-70" width="140" height="70" as="geometry" />
        </mxCell>
        <mxCell id="FGMAEnWzAYJxEoyZuGy0-36" value="&lt;b&gt;Uses Camera&lt;/b&gt;" style="ellipse;whiteSpace=wrap;html=1;" vertex="1" parent="1">
          <mxGeometry x="-2500" y="-190" width="140" height="70" as="geometry" />
        </mxCell>
        <mxCell id="FGMAEnWzAYJxEoyZuGy0-37" value="&amp;lt;&amp;lt;extend&amp;gt;&amp;gt;" style="endArrow=open;endSize=12;dashed=1;html=1;rounded=0;entryX=0;entryY=1;entryDx=0;entryDy=0;exitX=1;exitY=0;exitDx=0;exitDy=0;" edge="1" parent="1" source="FGMAEnWzAYJxEoyZuGy0-30" target="FGMAEnWzAYJxEoyZuGy0-36">
          <mxGeometry width="160" relative="1" as="geometry">
            <mxPoint x="-2620.5" y="-95" as="sourcePoint" />
            <mxPoint x="-2559.5" y="-210" as="targetPoint" />
          </mxGeometry>
        </mxCell>
        <mxCell id="FGMAEnWzAYJxEoyZuGy0-38" value="&amp;lt;&amp;lt;extend&amp;gt;&amp;gt;" style="endArrow=open;endSize=12;dashed=1;html=1;rounded=0;entryX=0;entryY=0.5;entryDx=0;entryDy=0;exitX=1;exitY=0.5;exitDx=0;exitDy=0;" edge="1" parent="1" source="FGMAEnWzAYJxEoyZuGy0-30" target="FGMAEnWzAYJxEoyZuGy0-35">
          <mxGeometry width="160" relative="1" as="geometry">
            <mxPoint x="-2551" y="35" as="sourcePoint" />
            <mxPoint x="-2469" y="-120" as="targetPoint" />
          </mxGeometry>
        </mxCell>
        <mxCell id="FGMAEnWzAYJxEoyZuGy0-39" value="&amp;lt;&amp;lt;extend&amp;gt;&amp;gt;" style="endArrow=open;endSize=12;dashed=1;html=1;rounded=0;exitX=1;exitY=1;exitDx=0;exitDy=0;" edge="1" parent="1" source="FGMAEnWzAYJxEoyZuGy0-30" target="FGMAEnWzAYJxEoyZuGy0-34">
          <mxGeometry width="160" relative="1" as="geometry">
            <mxPoint x="-2541" y="45" as="sourcePoint" />
            <mxPoint x="-2459" y="-110" as="targetPoint" />
          </mxGeometry>
        </mxCell>
        <mxCell id="FGMAEnWzAYJxEoyZuGy0-40" value="&lt;b&gt;Leave Call&lt;/b&gt;" style="ellipse;whiteSpace=wrap;html=1;" vertex="1" parent="1">
          <mxGeometry x="-2660" y="-240" width="140" height="70" as="geometry" />
        </mxCell>
        <mxCell id="FGMAEnWzAYJxEoyZuGy0-41" value="&amp;lt;&amp;lt;extend&amp;gt;&amp;gt;" style="endArrow=open;endSize=12;dashed=1;html=1;rounded=0;entryX=0.5;entryY=1;entryDx=0;entryDy=0;exitX=0.5;exitY=0;exitDx=0;exitDy=0;" edge="1" parent="1" source="FGMAEnWzAYJxEoyZuGy0-30" target="FGMAEnWzAYJxEoyZuGy0-40">
          <mxGeometry width="160" relative="1" as="geometry">
            <mxPoint x="-2551" y="35" as="sourcePoint" />
            <mxPoint x="-2469" y="-120" as="targetPoint" />
          </mxGeometry>
        </mxCell>
        <mxCell id="FGMAEnWzAYJxEoyZuGy0-42" value="" style="endArrow=none;html=1;rounded=0;exitX=1;exitY=0;exitDx=0;exitDy=0;entryX=0;entryY=1;entryDx=0;entryDy=0;" edge="1" parent="1" source="h5EkMIQOkNv7f-PZCays-121" target="FGMAEnWzAYJxEoyZuGy0-40">
          <mxGeometry width="50" height="50" relative="1" as="geometry">
            <mxPoint x="-3431" y="105" as="sourcePoint" />
            <mxPoint x="-2809" y="-20" as="targetPoint" />
            <Array as="points">
              <mxPoint x="-2980" y="-20" />
            </Array>
          </mxGeometry>
        </mxCell>
        <mxCell id="FGMAEnWzAYJxEoyZuGy0-43" value="&lt;b&gt;selects Which Screen To Share&lt;/b&gt;" style="ellipse;whiteSpace=wrap;html=1;" vertex="1" parent="1">
          <mxGeometry x="-2200" y="35" width="140" height="70" as="geometry" />
        </mxCell>
        <mxCell id="FGMAEnWzAYJxEoyZuGy0-45" value="" style="endArrow=classic;html=1;rounded=0;exitX=1;exitY=0.5;exitDx=0;exitDy=0;entryX=0;entryY=0.5;entryDx=0;entryDy=0;" edge="1" parent="1" source="FGMAEnWzAYJxEoyZuGy0-34" target="FGMAEnWzAYJxEoyZuGy0-43">
          <mxGeometry width="50" height="50" relative="1" as="geometry">
            <mxPoint x="-3001" y="110" as="sourcePoint" />
            <mxPoint x="-2850" y="65" as="targetPoint" />
          </mxGeometry>
        </mxCell>
        <mxCell id="FGMAEnWzAYJxEoyZuGy0-46" value="&amp;lt;&amp;lt;include&amp;gt;&amp;gt;" style="edgeLabel;html=1;align=center;verticalAlign=middle;resizable=0;points=[];" vertex="1" connectable="0" parent="FGMAEnWzAYJxEoyZuGy0-45">
          <mxGeometry x="0.0198" y="-3" relative="1" as="geometry">
            <mxPoint as="offset" />
          </mxGeometry>
        </mxCell>
        <mxCell id="FGMAEnWzAYJxEoyZuGy0-47" value="" style="endArrow=none;dashed=1;html=1;dashPattern=1 3;strokeWidth=2;rounded=0;strokeColor=#FF0000;" edge="1" parent="1">
          <mxGeometry width="50" height="50" relative="1" as="geometry">
            <mxPoint x="-3160" y="-390" as="sourcePoint" />
            <mxPoint x="-2030" y="-390" as="targetPoint" />
          </mxGeometry>
        </mxCell>
        <mxCell id="FGMAEnWzAYJxEoyZuGy0-48" value="" style="endArrow=none;dashed=1;html=1;dashPattern=1 3;strokeWidth=2;rounded=0;strokeColor=#FF0000;" edge="1" parent="1">
          <mxGeometry width="50" height="50" relative="1" as="geometry">
            <mxPoint x="-3155" y="170" as="sourcePoint" />
            <mxPoint x="-2025" y="170" as="targetPoint" />
          </mxGeometry>
        </mxCell>
        <mxCell id="FGMAEnWzAYJxEoyZuGy0-49" value="" style="endArrow=none;dashed=1;html=1;dashPattern=1 3;strokeWidth=2;rounded=0;strokeColor=#FF0000;" edge="1" parent="1">
          <mxGeometry width="50" height="50" relative="1" as="geometry">
            <mxPoint x="-2030" y="170" as="sourcePoint" />
            <mxPoint x="-2030" y="-390" as="targetPoint" />
          </mxGeometry>
        </mxCell>
        <mxCell id="FGMAEnWzAYJxEoyZuGy0-50" value="" style="endArrow=none;dashed=1;html=1;dashPattern=1 3;strokeWidth=2;rounded=0;" edge="1" parent="1">
          <mxGeometry width="50" height="50" relative="1" as="geometry">
            <mxPoint x="-3491" y="640" as="sourcePoint" />
            <mxPoint x="-3490.83" y="285" as="targetPoint" />
          </mxGeometry>
        </mxCell>
        <mxCell id="FGMAEnWzAYJxEoyZuGy0-51" value="" style="endArrow=none;dashed=1;html=1;dashPattern=1 3;strokeWidth=2;rounded=0;" edge="1" parent="1">
          <mxGeometry width="50" height="50" relative="1" as="geometry">
            <mxPoint x="-4280" y="630" as="sourcePoint" />
            <mxPoint x="-4279.83" y="290" as="targetPoint" />
          </mxGeometry>
        </mxCell>
        <mxCell id="FGMAEnWzAYJxEoyZuGy0-52" value="" style="endArrow=none;dashed=1;html=1;dashPattern=1 3;strokeWidth=2;rounded=0;" edge="1" parent="1">
          <mxGeometry width="50" height="50" relative="1" as="geometry">
            <mxPoint x="-3490" y="290" as="sourcePoint" />
            <mxPoint x="-4280" y="290" as="targetPoint" />
          </mxGeometry>
        </mxCell>
        <mxCell id="FGMAEnWzAYJxEoyZuGy0-53" value="" style="endArrow=none;dashed=1;html=1;dashPattern=1 3;strokeWidth=2;rounded=0;" edge="1" parent="1">
          <mxGeometry width="50" height="50" relative="1" as="geometry">
            <mxPoint x="-3490" y="640" as="sourcePoint" />
            <mxPoint x="-4280" y="630" as="targetPoint" />
          </mxGeometry>
        </mxCell>
        <mxCell id="FGMAEnWzAYJxEoyZuGy0-54" value="" style="endArrow=none;dashed=1;html=1;dashPattern=1 3;strokeWidth=2;rounded=0;strokeColor=#FF0000;" edge="1" parent="1">
          <mxGeometry width="50" height="50" relative="1" as="geometry">
            <mxPoint x="-3422" y="1070" as="sourcePoint" />
            <mxPoint x="-3422" y="620" as="targetPoint" />
          </mxGeometry>
        </mxCell>
        <mxCell id="FGMAEnWzAYJxEoyZuGy0-55" value="" style="endArrow=none;dashed=1;html=1;dashPattern=1 3;strokeWidth=2;rounded=0;strokeColor=#FF0000;" edge="1" parent="1">
          <mxGeometry width="50" height="50" relative="1" as="geometry">
            <mxPoint x="-3420" y="1070" as="sourcePoint" />
            <mxPoint x="-2800" y="1070" as="targetPoint" />
          </mxGeometry>
        </mxCell>
        <mxCell id="FGMAEnWzAYJxEoyZuGy0-56" value="" style="endArrow=none;dashed=1;html=1;dashPattern=1 3;strokeWidth=2;rounded=0;strokeColor=#FF0000;" edge="1" parent="1">
          <mxGeometry width="50" height="50" relative="1" as="geometry">
            <mxPoint x="-2800" y="630" as="sourcePoint" />
            <mxPoint x="-2800" y="1070" as="targetPoint" />
          </mxGeometry>
        </mxCell>
        <mxCell id="FGMAEnWzAYJxEoyZuGy0-57" value="" style="endArrow=none;dashed=1;html=1;dashPattern=1 3;strokeWidth=2;rounded=0;strokeColor=#FF0000;" edge="1" parent="1">
          <mxGeometry width="50" height="50" relative="1" as="geometry">
            <mxPoint x="-2800" y="620" as="sourcePoint" />
            <mxPoint x="-3420" y="620" as="targetPoint" />
          </mxGeometry>
        </mxCell>
        <mxCell id="FGMAEnWzAYJxEoyZuGy0-58" value="" style="endArrow=none;dashed=1;html=1;dashPattern=1 3;strokeWidth=2;rounded=0;" edge="1" parent="1">
          <mxGeometry width="50" height="50" relative="1" as="geometry">
            <mxPoint x="-2480" y="620" as="sourcePoint" />
            <mxPoint x="-3410" y="590" as="targetPoint" />
          </mxGeometry>
        </mxCell>
        <mxCell id="FGMAEnWzAYJxEoyZuGy0-59" value="" style="endArrow=none;dashed=1;html=1;dashPattern=1 3;strokeWidth=2;rounded=0;" edge="1" parent="1">
          <mxGeometry width="50" height="50" relative="1" as="geometry">
            <mxPoint x="-2470" y="630" as="sourcePoint" />
            <mxPoint x="-2470" y="190" as="targetPoint" />
          </mxGeometry>
        </mxCell>
        <mxCell id="FGMAEnWzAYJxEoyZuGy0-60" value="" style="endArrow=none;dashed=1;html=1;dashPattern=1 3;strokeWidth=2;rounded=0;" edge="1" parent="1">
          <mxGeometry width="50" height="50" relative="1" as="geometry">
            <mxPoint x="-3400" y="220" as="sourcePoint" />
            <mxPoint x="-2470" y="200" as="targetPoint" />
            <Array as="points">
              <mxPoint x="-2880" y="200" />
            </Array>
          </mxGeometry>
        </mxCell>
        <mxCell id="FGMAEnWzAYJxEoyZuGy0-61" value="" style="endArrow=none;dashed=1;html=1;dashPattern=1 3;strokeWidth=2;rounded=0;" edge="1" parent="1">
          <mxGeometry width="50" height="50" relative="1" as="geometry">
            <mxPoint x="-3410" y="590" as="sourcePoint" />
            <mxPoint x="-3400" y="220" as="targetPoint" />
          </mxGeometry>
        </mxCell>
        <mxCell id="FGMAEnWzAYJxEoyZuGy0-62" value="" style="endArrow=none;dashed=1;html=1;dashPattern=1 3;strokeWidth=2;rounded=0;strokeColor=#FF0000;" edge="1" parent="1">
          <mxGeometry width="50" height="50" relative="1" as="geometry">
            <mxPoint x="-4450" y="1110" as="sourcePoint" />
            <mxPoint x="-4450" y="650" as="targetPoint" />
          </mxGeometry>
        </mxCell>
        <mxCell id="FGMAEnWzAYJxEoyZuGy0-63" value="" style="endArrow=none;dashed=1;html=1;dashPattern=1 3;strokeWidth=2;rounded=0;strokeColor=#FF0000;" edge="1" parent="1">
          <mxGeometry width="50" height="50" relative="1" as="geometry">
            <mxPoint x="-3560" y="660" as="sourcePoint" />
            <mxPoint x="-4450" y="650" as="targetPoint" />
          </mxGeometry>
        </mxCell>
        <mxCell id="FGMAEnWzAYJxEoyZuGy0-64" value="" style="endArrow=none;dashed=1;html=1;dashPattern=1 3;strokeWidth=2;rounded=0;strokeColor=#FF0000;" edge="1" parent="1">
          <mxGeometry width="50" height="50" relative="1" as="geometry">
            <mxPoint x="-3560" y="1120" as="sourcePoint" />
            <mxPoint x="-3560" y="660" as="targetPoint" />
          </mxGeometry>
        </mxCell>
        <mxCell id="FGMAEnWzAYJxEoyZuGy0-65" value="" style="endArrow=none;dashed=1;html=1;dashPattern=1 3;strokeWidth=2;rounded=0;strokeColor=#FF0000;" edge="1" parent="1">
          <mxGeometry width="50" height="50" relative="1" as="geometry">
            <mxPoint x="-3555" y="1120" as="sourcePoint" />
            <mxPoint x="-4445" y="1110" as="targetPoint" />
          </mxGeometry>
        </mxCell>
        <mxCell id="FGMAEnWzAYJxEoyZuGy0-66" value="" style="endArrow=none;html=1;rounded=0;exitX=0.5;exitY=0;exitDx=0;exitDy=0;exitPerimeter=0;entryX=0;entryY=0.5;entryDx=0;entryDy=0;" edge="1" parent="1" source="h5EkMIQOkNv7f-PZCays-1" target="FGMAEnWzAYJxEoyZuGy0-67">
          <mxGeometry width="50" height="50" relative="1" as="geometry">
            <mxPoint x="-4687" y="296" as="sourcePoint" />
            <mxPoint x="-1940" y="150" as="targetPoint" />
          </mxGeometry>
        </mxCell>
        <mxCell id="FGMAEnWzAYJxEoyZuGy0-67" value="&lt;b&gt;studentSelectsBook&lt;/b&gt;" style="ellipse;whiteSpace=wrap;html=1;" vertex="1" parent="1">
          <mxGeometry x="-1940" y="120" width="140" height="70" as="geometry" />
        </mxCell>
        <mxCell id="FGMAEnWzAYJxEoyZuGy0-68" value="&lt;b&gt;Student is in userSubjectProfileMenu, and presses the &#39;Books&#39; button from Menu.&lt;/b&gt;" style="rounded=1;whiteSpace=wrap;html=1;" vertex="1" parent="1">
          <mxGeometry x="-1880" y="-70" width="160" height="70" as="geometry" />
        </mxCell>
        <mxCell id="FGMAEnWzAYJxEoyZuGy0-69" value="" style="endArrow=none;dashed=1;html=1;rounded=0;exitX=0.25;exitY=1;exitDx=0;exitDy=0;entryX=0.5;entryY=0;entryDx=0;entryDy=0;" edge="1" parent="1" source="FGMAEnWzAYJxEoyZuGy0-68" target="FGMAEnWzAYJxEoyZuGy0-67">
          <mxGeometry width="50" height="50" relative="1" as="geometry">
            <mxPoint x="-1910" y="-70" as="sourcePoint" />
            <mxPoint x="-1950" y="50" as="targetPoint" />
          </mxGeometry>
        </mxCell>
        <mxCell id="FGMAEnWzAYJxEoyZuGy0-70" value="&lt;b&gt;studentSelectsBook&lt;/b&gt;&lt;div&gt;&lt;b&gt;Unsuccessfuly&lt;/b&gt;&lt;/div&gt;" style="ellipse;whiteSpace=wrap;html=1;" vertex="1" parent="1">
          <mxGeometry x="-1680" y="220" width="140" height="70" as="geometry" />
        </mxCell>
        <mxCell id="FGMAEnWzAYJxEoyZuGy0-71" value="&lt;b&gt;studentSelectsBook&amp;nbsp;&lt;/b&gt;&lt;div&gt;&lt;b&gt;Successfuly&lt;/b&gt;&lt;/div&gt;" style="ellipse;whiteSpace=wrap;html=1;" vertex="1" parent="1">
          <mxGeometry x="-1680" width="140" height="70" as="geometry" />
        </mxCell>
        <mxCell id="FGMAEnWzAYJxEoyZuGy0-72" value="&lt;b&gt;Check Enrollment Period&lt;/b&gt;" style="ellipse;whiteSpace=wrap;html=1;" vertex="1" parent="1">
          <mxGeometry x="-1570" y="105" width="140" height="70" as="geometry" />
        </mxCell>
        <mxCell id="FGMAEnWzAYJxEoyZuGy0-73" value="" style="endArrow=none;html=1;rounded=0;exitX=1;exitY=0;exitDx=0;exitDy=0;entryX=0;entryY=1;entryDx=0;entryDy=0;" edge="1" parent="1" source="FGMAEnWzAYJxEoyZuGy0-67" target="FGMAEnWzAYJxEoyZuGy0-71">
          <mxGeometry width="50" height="50" relative="1" as="geometry">
            <mxPoint x="-2020" y="541.25" as="sourcePoint" />
            <mxPoint x="-1218" y="266.25" as="targetPoint" />
            <Array as="points" />
          </mxGeometry>
        </mxCell>
        <mxCell id="FGMAEnWzAYJxEoyZuGy0-75" value="" style="endArrow=none;html=1;rounded=0;entryX=0;entryY=0;entryDx=0;entryDy=0;exitX=1;exitY=1;exitDx=0;exitDy=0;" edge="1" parent="1" source="FGMAEnWzAYJxEoyZuGy0-67" target="FGMAEnWzAYJxEoyZuGy0-70">
          <mxGeometry width="50" height="50" relative="1" as="geometry">
            <mxPoint x="-1790" y="165" as="sourcePoint" />
            <mxPoint x="-1560" y="150" as="targetPoint" />
            <Array as="points" />
          </mxGeometry>
        </mxCell>
        <mxCell id="FGMAEnWzAYJxEoyZuGy0-76" value="" style="endArrow=none;html=1;rounded=0;exitX=1;exitY=0;exitDx=0;exitDy=0;entryX=0.5;entryY=1;entryDx=0;entryDy=0;" edge="1" parent="1" source="FGMAEnWzAYJxEoyZuGy0-70" target="FGMAEnWzAYJxEoyZuGy0-72">
          <mxGeometry width="50" height="50" relative="1" as="geometry">
            <mxPoint x="-1811" y="140" as="sourcePoint" />
            <mxPoint x="-1649" y="70" as="targetPoint" />
            <Array as="points" />
          </mxGeometry>
        </mxCell>
        <mxCell id="FGMAEnWzAYJxEoyZuGy0-77" value="" style="endArrow=classic;html=1;rounded=0;exitX=1;exitY=0.5;exitDx=0;exitDy=0;entryX=0;entryY=0.5;entryDx=0;entryDy=0;" edge="1" parent="1" source="FGMAEnWzAYJxEoyZuGy0-67" target="FGMAEnWzAYJxEoyZuGy0-72">
          <mxGeometry width="50" height="50" relative="1" as="geometry">
            <mxPoint x="-2270" y="130" as="sourcePoint" />
            <mxPoint x="-2190" y="80" as="targetPoint" />
          </mxGeometry>
        </mxCell>
        <mxCell id="FGMAEnWzAYJxEoyZuGy0-78" value="&amp;lt;&amp;lt;include&amp;gt;&amp;gt;" style="edgeLabel;html=1;align=center;verticalAlign=middle;resizable=0;points=[];" vertex="1" connectable="0" parent="FGMAEnWzAYJxEoyZuGy0-77">
          <mxGeometry x="0.0198" y="-3" relative="1" as="geometry">
            <mxPoint as="offset" />
          </mxGeometry>
        </mxCell>
        <mxCell id="FGMAEnWzAYJxEoyZuGy0-79" value="&lt;b&gt;Search By Author&lt;/b&gt;" style="ellipse;whiteSpace=wrap;html=1;" vertex="1" parent="1">
          <mxGeometry x="-1350" y="90" width="140" height="70" as="geometry" />
        </mxCell>
        <mxCell id="FGMAEnWzAYJxEoyZuGy0-80" value="&lt;b&gt;Search By ISBN&lt;/b&gt;" style="ellipse;whiteSpace=wrap;html=1;" vertex="1" parent="1">
          <mxGeometry x="-1360" y="-60" width="140" height="70" as="geometry" />
        </mxCell>
        <mxCell id="FGMAEnWzAYJxEoyZuGy0-81" value="&lt;b&gt;Select Book&lt;/b&gt;" style="ellipse;whiteSpace=wrap;html=1;" vertex="1" parent="1">
          <mxGeometry x="-1130" y="35" width="140" height="70" as="geometry" />
        </mxCell>
        <mxCell id="FGMAEnWzAYJxEoyZuGy0-82" value="" style="endArrow=none;html=1;rounded=0;exitX=1;exitY=0;exitDx=0;exitDy=0;entryX=0;entryY=1;entryDx=0;entryDy=0;" edge="1" parent="1" source="FGMAEnWzAYJxEoyZuGy0-72" target="FGMAEnWzAYJxEoyZuGy0-80">
          <mxGeometry width="50" height="50" relative="1" as="geometry">
            <mxPoint x="-1551" y="240" as="sourcePoint" />
            <mxPoint x="-1490" y="185" as="targetPoint" />
            <Array as="points" />
          </mxGeometry>
        </mxCell>
        <mxCell id="FGMAEnWzAYJxEoyZuGy0-83" value="" style="endArrow=none;html=1;rounded=0;exitX=1;exitY=0.5;exitDx=0;exitDy=0;entryX=0;entryY=0.5;entryDx=0;entryDy=0;" edge="1" parent="1" source="FGMAEnWzAYJxEoyZuGy0-72" target="FGMAEnWzAYJxEoyZuGy0-79">
          <mxGeometry width="50" height="50" relative="1" as="geometry">
            <mxPoint x="-1441" y="125" as="sourcePoint" />
            <mxPoint x="-1329" y="10" as="targetPoint" />
            <Array as="points" />
          </mxGeometry>
        </mxCell>
        <mxCell id="FGMAEnWzAYJxEoyZuGy0-84" value="" style="endArrow=none;html=1;rounded=0;exitX=0;exitY=1;exitDx=0;exitDy=0;entryX=1;entryY=0.5;entryDx=0;entryDy=0;" edge="1" parent="1" source="FGMAEnWzAYJxEoyZuGy0-81" target="FGMAEnWzAYJxEoyZuGy0-79">
          <mxGeometry width="50" height="50" relative="1" as="geometry">
            <mxPoint x="-1441" y="125" as="sourcePoint" />
            <mxPoint x="-1329" y="10" as="targetPoint" />
            <Array as="points" />
          </mxGeometry>
        </mxCell>
        <mxCell id="FGMAEnWzAYJxEoyZuGy0-85" value="" style="endArrow=none;html=1;rounded=0;entryX=1;entryY=0.5;entryDx=0;entryDy=0;" edge="1" parent="1" source="FGMAEnWzAYJxEoyZuGy0-81" target="FGMAEnWzAYJxEoyZuGy0-80">
          <mxGeometry width="50" height="50" relative="1" as="geometry">
            <mxPoint x="-1431" y="135" as="sourcePoint" />
            <mxPoint x="-1319" y="20" as="targetPoint" />
            <Array as="points" />
          </mxGeometry>
        </mxCell>
        <mxCell id="FGMAEnWzAYJxEoyZuGy0-86" value="&lt;b&gt;Νο results&lt;/b&gt;" style="ellipse;whiteSpace=wrap;html=1;" vertex="1" parent="1">
          <mxGeometry x="-1200" y="210" width="140" height="70" as="geometry" />
        </mxCell>
        <mxCell id="FGMAEnWzAYJxEoyZuGy0-87" value="" style="endArrow=none;html=1;rounded=0;exitX=0.5;exitY=0;exitDx=0;exitDy=0;entryX=1;entryY=1;entryDx=0;entryDy=0;" edge="1" parent="1" source="FGMAEnWzAYJxEoyZuGy0-86" target="FGMAEnWzAYJxEoyZuGy0-80">
          <mxGeometry width="50" height="50" relative="1" as="geometry">
            <mxPoint x="-1069" y="120" as="sourcePoint" />
            <mxPoint x="-1200" y="135" as="targetPoint" />
            <Array as="points" />
          </mxGeometry>
        </mxCell>
        <mxCell id="FGMAEnWzAYJxEoyZuGy0-88" value="" style="endArrow=none;html=1;rounded=0;exitX=0;exitY=0;exitDx=0;exitDy=0;entryX=1;entryY=1;entryDx=0;entryDy=0;" edge="1" parent="1" source="FGMAEnWzAYJxEoyZuGy0-86" target="FGMAEnWzAYJxEoyZuGy0-79">
          <mxGeometry width="50" height="50" relative="1" as="geometry">
            <mxPoint x="-1120" y="220" as="sourcePoint" />
            <mxPoint x="-1231" y="10" as="targetPoint" />
            <Array as="points" />
          </mxGeometry>
        </mxCell>
        <mxCell id="FGMAEnWzAYJxEoyZuGy0-89" value="" style="endArrow=none;html=1;rounded=0;exitX=0;exitY=0.5;exitDx=0;exitDy=0;entryX=1;entryY=0.5;entryDx=0;entryDy=0;" edge="1" parent="1" source="FGMAEnWzAYJxEoyZuGy0-86" target="FGMAEnWzAYJxEoyZuGy0-70">
          <mxGeometry width="50" height="50" relative="1" as="geometry">
            <mxPoint x="-1169" y="230" as="sourcePoint" />
            <mxPoint x="-1221" y="160" as="targetPoint" />
            <Array as="points" />
          </mxGeometry>
        </mxCell>
        <mxCell id="FGMAEnWzAYJxEoyZuGy0-90" value="&lt;b&gt;Book already selected&lt;/b&gt;" style="ellipse;whiteSpace=wrap;html=1;" vertex="1" parent="1">
          <mxGeometry x="-910" y="35" width="140" height="70" as="geometry" />
        </mxCell>
        <mxCell id="FGMAEnWzAYJxEoyZuGy0-91" value="" style="endArrow=none;html=1;rounded=0;exitX=0;exitY=1;exitDx=0;exitDy=0;entryX=1;entryY=0;entryDx=0;entryDy=0;" edge="1" parent="1" source="FGMAEnWzAYJxEoyZuGy0-90" target="FGMAEnWzAYJxEoyZuGy0-70">
          <mxGeometry width="50" height="50" relative="1" as="geometry">
            <mxPoint x="-1190" y="255" as="sourcePoint" />
            <mxPoint x="-1530" y="265" as="targetPoint" />
            <Array as="points" />
          </mxGeometry>
        </mxCell>
        <mxCell id="FGMAEnWzAYJxEoyZuGy0-92" value="" style="endArrow=none;html=1;rounded=0;exitX=0;exitY=0.5;exitDx=0;exitDy=0;entryX=1;entryY=0.5;entryDx=0;entryDy=0;" edge="1" parent="1" source="FGMAEnWzAYJxEoyZuGy0-81" target="FGMAEnWzAYJxEoyZuGy0-71">
          <mxGeometry width="50" height="50" relative="1" as="geometry">
            <mxPoint x="-1190" y="255" as="sourcePoint" />
            <mxPoint x="-1530" y="265" as="targetPoint" />
            <Array as="points" />
          </mxGeometry>
        </mxCell>
        <mxCell id="FGMAEnWzAYJxEoyZuGy0-93" value="" style="endArrow=none;dashed=1;html=1;dashPattern=1 3;strokeWidth=2;rounded=0;" edge="1" parent="1">
          <mxGeometry width="50" height="50" relative="1" as="geometry">
            <mxPoint x="-1970" y="310" as="sourcePoint" />
            <mxPoint x="-1970" y="-110" as="targetPoint" />
          </mxGeometry>
        </mxCell>
        <mxCell id="FGMAEnWzAYJxEoyZuGy0-94" value="" style="endArrow=none;dashed=1;html=1;dashPattern=1 3;strokeWidth=2;rounded=0;" edge="1" parent="1">
          <mxGeometry width="50" height="50" relative="1" as="geometry">
            <mxPoint x="-760" y="-110" as="sourcePoint" />
            <mxPoint x="-1970" y="-110" as="targetPoint" />
          </mxGeometry>
        </mxCell>
        <mxCell id="FGMAEnWzAYJxEoyZuGy0-95" value="" style="endArrow=none;dashed=1;html=1;dashPattern=1 3;strokeWidth=2;rounded=0;" edge="1" parent="1">
          <mxGeometry width="50" height="50" relative="1" as="geometry">
            <mxPoint x="-760" y="309.09" as="sourcePoint" />
            <mxPoint x="-1970" y="309.09" as="targetPoint" />
          </mxGeometry>
        </mxCell>
        <mxCell id="FGMAEnWzAYJxEoyZuGy0-96" value="" style="endArrow=none;dashed=1;html=1;dashPattern=1 3;strokeWidth=2;rounded=0;" edge="1" parent="1">
          <mxGeometry width="50" height="50" relative="1" as="geometry">
            <mxPoint x="-760" y="305" as="sourcePoint" />
            <mxPoint x="-760" y="-115" as="targetPoint" />
          </mxGeometry>
        </mxCell>
        <mxCell id="FGMAEnWzAYJxEoyZuGy0-97" value="" style="endArrow=none;html=1;rounded=0;exitX=1;exitY=1;exitDx=0;exitDy=0;exitPerimeter=0;entryX=0;entryY=0.5;entryDx=0;entryDy=0;" edge="1" parent="1" source="h5EkMIQOkNv7f-PZCays-1" target="FGMAEnWzAYJxEoyZuGy0-98">
          <mxGeometry width="50" height="50" relative="1" as="geometry">
            <mxPoint x="-4710" y="350" as="sourcePoint" />
            <mxPoint x="-2870" y="1140" as="targetPoint" />
            <Array as="points">
              <mxPoint x="-3810" y="710" />
            </Array>
          </mxGeometry>
        </mxCell>
        <mxCell id="FGMAEnWzAYJxEoyZuGy0-98" value="&lt;b&gt;MyTeam&lt;/b&gt;" style="ellipse;whiteSpace=wrap;html=1;" vertex="1" parent="1">
          <mxGeometry x="-3150" y="1170" width="140" height="70" as="geometry" />
        </mxCell>
        <mxCell id="FGMAEnWzAYJxEoyZuGy0-99" value="&lt;b&gt;Student is in userSubjectProfile, he hasn&#39;t a team and want to find one.&lt;/b&gt;" style="rounded=1;whiteSpace=wrap;html=1;" vertex="1" parent="1">
          <mxGeometry x="-3360" y="1240" width="120" height="110" as="geometry" />
        </mxCell>
        <mxCell id="FGMAEnWzAYJxEoyZuGy0-100" value="" style="endArrow=none;dashed=1;html=1;rounded=0;exitX=0;exitY=1;exitDx=0;exitDy=0;entryX=1;entryY=0.75;entryDx=0;entryDy=0;" edge="1" parent="1" source="FGMAEnWzAYJxEoyZuGy0-98" target="FGMAEnWzAYJxEoyZuGy0-99">
          <mxGeometry width="50" height="50" relative="1" as="geometry">
            <mxPoint x="-3249" y="900" as="sourcePoint" />
            <mxPoint x="-3280" y="930" as="targetPoint" />
          </mxGeometry>
        </mxCell>
        <mxCell id="FGMAEnWzAYJxEoyZuGy0-101" value="&lt;b&gt;Invite Team Members&lt;/b&gt;" style="ellipse;whiteSpace=wrap;html=1;" vertex="1" parent="1">
          <mxGeometry x="-2830" y="1250" width="140" height="70" as="geometry" />
        </mxCell>
        <mxCell id="FGMAEnWzAYJxEoyZuGy0-102" value="&lt;b&gt;Unsuccessfully Invited&lt;/b&gt;" style="ellipse;whiteSpace=wrap;html=1;" vertex="1" parent="1">
          <mxGeometry x="-3240" y="1380" width="140" height="70" as="geometry" />
        </mxCell>
        <mxCell id="FGMAEnWzAYJxEoyZuGy0-103" value="&lt;b&gt;Successfully invited&lt;/b&gt;" style="ellipse;whiteSpace=wrap;html=1;" vertex="1" parent="1">
          <mxGeometry x="-3034" y="1270" width="140" height="70" as="geometry" />
        </mxCell>
        <mxCell id="FGMAEnWzAYJxEoyZuGy0-104" value="" style="endArrow=none;html=1;rounded=0;exitX=0.5;exitY=1;exitDx=0;exitDy=0;entryX=0;entryY=0.5;entryDx=0;entryDy=0;" edge="1" parent="1" source="FGMAEnWzAYJxEoyZuGy0-98" target="FGMAEnWzAYJxEoyZuGy0-103">
          <mxGeometry width="50" height="50" relative="1" as="geometry">
            <mxPoint x="-3260" y="725" as="sourcePoint" />
            <mxPoint x="-3140" y="665" as="targetPoint" />
            <Array as="points" />
          </mxGeometry>
        </mxCell>
        <mxCell id="FGMAEnWzAYJxEoyZuGy0-105" value="" style="endArrow=none;html=1;rounded=0;exitX=0.5;exitY=1;exitDx=0;exitDy=0;entryX=0.5;entryY=0;entryDx=0;entryDy=0;" edge="1" parent="1" source="FGMAEnWzAYJxEoyZuGy0-98" target="FGMAEnWzAYJxEoyZuGy0-102">
          <mxGeometry width="50" height="50" relative="1" as="geometry">
            <mxPoint x="-3050" y="1220" as="sourcePoint" />
            <mxPoint x="-2940" y="1275" as="targetPoint" />
            <Array as="points" />
          </mxGeometry>
        </mxCell>
        <mxCell id="FGMAEnWzAYJxEoyZuGy0-108" value="&lt;b&gt;Reach Team Members Limit&lt;/b&gt;" style="ellipse;whiteSpace=wrap;html=1;" vertex="1" parent="1">
          <mxGeometry x="-2830" y="1400" width="140" height="70" as="geometry" />
        </mxCell>
        <mxCell id="FGMAEnWzAYJxEoyZuGy0-109" value="&lt;b&gt;Student&amp;nbsp; belongs to another Team&lt;/b&gt;" style="ellipse;whiteSpace=wrap;html=1;" vertex="1" parent="1">
          <mxGeometry x="-2610" y="1300" width="140" height="70" as="geometry" />
        </mxCell>
        <mxCell id="FGMAEnWzAYJxEoyZuGy0-110" value="" style="endArrow=classic;html=1;rounded=0;exitX=1;exitY=0.5;exitDx=0;exitDy=0;entryX=0;entryY=0.5;entryDx=0;entryDy=0;" edge="1" parent="1" source="FGMAEnWzAYJxEoyZuGy0-101" target="FGMAEnWzAYJxEoyZuGy0-109">
          <mxGeometry width="50" height="50" relative="1" as="geometry">
            <mxPoint x="-2980" y="1185" as="sourcePoint" />
            <mxPoint x="-2770" y="1185" as="targetPoint" />
          </mxGeometry>
        </mxCell>
        <mxCell id="FGMAEnWzAYJxEoyZuGy0-111" value="&amp;lt;&amp;lt;include&amp;gt;&amp;gt;" style="edgeLabel;html=1;align=center;verticalAlign=middle;resizable=0;points=[];" vertex="1" connectable="0" parent="FGMAEnWzAYJxEoyZuGy0-110">
          <mxGeometry x="0.0198" y="-3" relative="1" as="geometry">
            <mxPoint as="offset" />
          </mxGeometry>
        </mxCell>
        <mxCell id="FGMAEnWzAYJxEoyZuGy0-112" value="" style="endArrow=classic;html=1;rounded=0;exitX=1;exitY=1;exitDx=0;exitDy=0;entryX=0;entryY=0;entryDx=0;entryDy=0;" edge="1" parent="1" source="FGMAEnWzAYJxEoyZuGy0-101" target="FGMAEnWzAYJxEoyZuGy0-108">
          <mxGeometry width="50" height="50" relative="1" as="geometry">
            <mxPoint x="-2630" y="1185" as="sourcePoint" />
            <mxPoint x="-2550" y="1125" as="targetPoint" />
          </mxGeometry>
        </mxCell>
        <mxCell id="FGMAEnWzAYJxEoyZuGy0-113" value="&amp;lt;&amp;lt;include&amp;gt;&amp;gt;" style="edgeLabel;html=1;align=center;verticalAlign=middle;resizable=0;points=[];" vertex="1" connectable="0" parent="FGMAEnWzAYJxEoyZuGy0-112">
          <mxGeometry x="0.0198" y="-3" relative="1" as="geometry">
            <mxPoint as="offset" />
          </mxGeometry>
        </mxCell>
        <mxCell id="FGMAEnWzAYJxEoyZuGy0-114" value="" style="endArrow=none;html=1;rounded=0;exitX=0;exitY=1;exitDx=0;exitDy=0;entryX=1;entryY=0.5;entryDx=0;entryDy=0;" edge="1" parent="1" source="FGMAEnWzAYJxEoyZuGy0-108" target="FGMAEnWzAYJxEoyZuGy0-102">
          <mxGeometry width="50" height="50" relative="1" as="geometry">
            <mxPoint x="-3050" y="1220" as="sourcePoint" />
            <mxPoint x="-2980" y="1370" as="targetPoint" />
            <Array as="points" />
          </mxGeometry>
        </mxCell>
        <mxCell id="FGMAEnWzAYJxEoyZuGy0-115" value="" style="endArrow=none;html=1;rounded=0;exitX=0.5;exitY=1;exitDx=0;exitDy=0;entryX=1;entryY=0;entryDx=0;entryDy=0;" edge="1" parent="1" source="FGMAEnWzAYJxEoyZuGy0-109" target="FGMAEnWzAYJxEoyZuGy0-102">
          <mxGeometry width="50" height="50" relative="1" as="geometry">
            <mxPoint x="-3040" y="1230" as="sourcePoint" />
            <mxPoint x="-2970" y="1380" as="targetPoint" />
            <Array as="points" />
          </mxGeometry>
        </mxCell>
        <mxCell id="FGMAEnWzAYJxEoyZuGy0-116" value="" style="endArrow=none;html=1;rounded=0;exitX=0;exitY=1;exitDx=0;exitDy=0;entryX=1;entryY=1;entryDx=0;entryDy=0;" edge="1" parent="1" source="FGMAEnWzAYJxEoyZuGy0-101" target="FGMAEnWzAYJxEoyZuGy0-103">
          <mxGeometry width="50" height="50" relative="1" as="geometry">
            <mxPoint x="-2480" y="1160" as="sourcePoint" />
            <mxPoint x="-2931" y="1380" as="targetPoint" />
            <Array as="points" />
          </mxGeometry>
        </mxCell>
        <mxCell id="FGMAEnWzAYJxEoyZuGy0-118" value="&lt;b&gt;Successfully Join a Team&lt;/b&gt;" style="ellipse;whiteSpace=wrap;html=1;" vertex="1" parent="1">
          <mxGeometry x="-3020" y="1090" width="140" height="70" as="geometry" />
        </mxCell>
        <mxCell id="FGMAEnWzAYJxEoyZuGy0-119" value="&lt;b&gt;Invite Team Members&lt;/b&gt;" style="ellipse;whiteSpace=wrap;html=1;" vertex="1" parent="1">
          <mxGeometry x="-2830" y="1130" width="140" height="80" as="geometry" />
        </mxCell>
        <mxCell id="FGMAEnWzAYJxEoyZuGy0-120" value="&amp;lt;&amp;lt;extend&amp;gt;&amp;gt;" style="endArrow=open;endSize=12;dashed=1;html=1;rounded=0;entryX=0;entryY=0;entryDx=0;entryDy=0;exitX=1;exitY=1;exitDx=0;exitDy=0;" edge="1" parent="1" source="FGMAEnWzAYJxEoyZuGy0-98" target="FGMAEnWzAYJxEoyZuGy0-101">
          <mxGeometry width="160" relative="1" as="geometry">
            <mxPoint x="-3031" y="1240" as="sourcePoint" />
            <mxPoint x="-2809" y="1210" as="targetPoint" />
            <Array as="points" />
          </mxGeometry>
        </mxCell>
        <mxCell id="FGMAEnWzAYJxEoyZuGy0-121" value="&amp;lt;&amp;lt;extend&amp;gt;&amp;gt;" style="endArrow=open;endSize=12;dashed=1;html=1;rounded=0;entryX=0;entryY=0.5;entryDx=0;entryDy=0;exitX=1;exitY=0.5;exitDx=0;exitDy=0;" edge="1" parent="1" source="FGMAEnWzAYJxEoyZuGy0-98" target="FGMAEnWzAYJxEoyZuGy0-119">
          <mxGeometry width="160" relative="1" as="geometry">
            <mxPoint x="-3021" y="1240" as="sourcePoint" />
            <mxPoint x="-2799" y="1270" as="targetPoint" />
            <Array as="points" />
          </mxGeometry>
        </mxCell>
        <mxCell id="FGMAEnWzAYJxEoyZuGy0-122" value="" style="endArrow=none;html=1;rounded=0;exitX=0;exitY=0;exitDx=0;exitDy=0;entryX=1;entryY=0.5;entryDx=0;entryDy=0;" edge="1" parent="1" source="FGMAEnWzAYJxEoyZuGy0-119" target="FGMAEnWzAYJxEoyZuGy0-118">
          <mxGeometry width="50" height="50" relative="1" as="geometry">
            <mxPoint x="-2799" y="1320" as="sourcePoint" />
            <mxPoint x="-2905" y="1340" as="targetPoint" />
            <Array as="points" />
          </mxGeometry>
        </mxCell>
        <mxCell id="FGMAEnWzAYJxEoyZuGy0-123" value="" style="endArrow=none;dashed=1;html=1;dashPattern=1 3;strokeWidth=2;rounded=0;strokeColor=#FF0000;" edge="1" parent="1">
          <mxGeometry width="50" height="50" relative="1" as="geometry">
            <mxPoint x="-3430" y="1080" as="sourcePoint" />
            <mxPoint x="-2460" y="1080" as="targetPoint" />
          </mxGeometry>
        </mxCell>
        <mxCell id="FGMAEnWzAYJxEoyZuGy0-124" value="" style="endArrow=none;dashed=1;html=1;dashPattern=1 3;strokeWidth=2;rounded=0;strokeColor=#FF0000;" edge="1" parent="1">
          <mxGeometry width="50" height="50" relative="1" as="geometry">
            <mxPoint x="-3430" y="1510" as="sourcePoint" />
            <mxPoint x="-3430" y="1080" as="targetPoint" />
          </mxGeometry>
        </mxCell>
        <mxCell id="FGMAEnWzAYJxEoyZuGy0-125" value="" style="endArrow=none;dashed=1;html=1;dashPattern=1 3;strokeWidth=2;rounded=0;strokeColor=#FF0000;" edge="1" parent="1">
          <mxGeometry width="50" height="50" relative="1" as="geometry">
            <mxPoint x="-3430" y="1510" as="sourcePoint" />
            <mxPoint x="-2460" y="1510" as="targetPoint" />
          </mxGeometry>
        </mxCell>
        <mxCell id="FGMAEnWzAYJxEoyZuGy0-126" value="" style="endArrow=none;dashed=1;html=1;dashPattern=1 3;strokeWidth=2;rounded=0;strokeColor=#FF0000;" edge="1" parent="1">
          <mxGeometry width="50" height="50" relative="1" as="geometry">
            <mxPoint x="-2451.82" y="1510" as="sourcePoint" />
            <mxPoint x="-2451.82" y="1080" as="targetPoint" />
          </mxGeometry>
        </mxCell>
        <mxCell id="FGMAEnWzAYJxEoyZuGy0-127" value="" style="endArrow=none;html=1;rounded=0;exitX=1;exitY=0;exitDx=0;exitDy=0;entryX=0;entryY=1;entryDx=0;entryDy=0;" edge="1" parent="1" source="FGMAEnWzAYJxEoyZuGy0-98" target="FGMAEnWzAYJxEoyZuGy0-118">
          <mxGeometry width="50" height="50" relative="1" as="geometry">
            <mxPoint x="-3070" y="1250" as="sourcePoint" />
            <mxPoint x="-3024" y="1315" as="targetPoint" />
            <Array as="points" />
          </mxGeometry>
        </mxCell>
        <mxCell id="FGMAEnWzAYJxEoyZuGy0-128" value="" style="endArrow=none;html=1;rounded=0;exitX=1;exitY=1;exitDx=0;exitDy=0;entryX=0;entryY=0.5;entryDx=0;entryDy=0;" edge="1" parent="1" source="h5EkMIQOkNv7f-PZCays-121" target="FGMAEnWzAYJxEoyZuGy0-118">
          <mxGeometry width="50" height="50" relative="1" as="geometry">
            <mxPoint x="-4680" y="350" as="sourcePoint" />
            <mxPoint x="-3140" y="1215" as="targetPoint" />
            <Array as="points">
              <mxPoint x="-3490" y="780" />
              <mxPoint x="-3430" y="960" />
            </Array>
          </mxGeometry>
        </mxCell>
        <mxCell id="FGMAEnWzAYJxEoyZuGy0-129" value="" style="endArrow=none;html=1;rounded=0;exitX=1;exitY=0.3333333333333333;exitDx=0;exitDy=0;exitPerimeter=0;entryX=0;entryY=0.5;entryDx=0;entryDy=0;" edge="1" parent="1" source="h5EkMIQOkNv7f-PZCays-1" target="FGMAEnWzAYJxEoyZuGy0-130">
          <mxGeometry width="50" height="50" relative="1" as="geometry">
            <mxPoint x="-4680" y="350" as="sourcePoint" />
            <mxPoint x="-2720" y="800" as="targetPoint" />
            <Array as="points">
              <mxPoint x="-3570" y="390" />
            </Array>
          </mxGeometry>
        </mxCell>
        <mxCell id="FGMAEnWzAYJxEoyZuGy0-130" value="&lt;b&gt;Calendar&lt;/b&gt;" style="ellipse;whiteSpace=wrap;html=1;" vertex="1" parent="1">
          <mxGeometry x="-2010" y="1137.1399999999999" width="140" height="70" as="geometry" />
        </mxCell>
        <mxCell id="FGMAEnWzAYJxEoyZuGy0-131" value="&lt;b&gt;Student is at studentMenuu and sees Calendar&lt;/b&gt;" style="rounded=1;whiteSpace=wrap;html=1;" vertex="1" parent="1">
          <mxGeometry x="-2020" y="1267.1399999999999" width="150" height="85" as="geometry" />
        </mxCell>
        <mxCell id="FGMAEnWzAYJxEoyZuGy0-132" value="" style="endArrow=none;dashed=1;html=1;rounded=0;exitX=0.5;exitY=1;exitDx=0;exitDy=0;entryX=0.5;entryY=0;entryDx=0;entryDy=0;" edge="1" parent="1" target="FGMAEnWzAYJxEoyZuGy0-131" source="FGMAEnWzAYJxEoyZuGy0-130">
          <mxGeometry width="50" height="50" relative="1" as="geometry">
            <mxPoint x="-2010" y="1372.1399999999999" as="sourcePoint" />
            <mxPoint x="-2030" y="1492.1399999999999" as="targetPoint" />
          </mxGeometry>
        </mxCell>
        <mxCell id="FGMAEnWzAYJxEoyZuGy0-134" value="&lt;b&gt;Team Call Reminder&lt;/b&gt;" style="ellipse;whiteSpace=wrap;html=1;" vertex="1" parent="1">
          <mxGeometry x="-1840" y="1297.1399999999999" width="140" height="70" as="geometry" />
        </mxCell>
        <mxCell id="FGMAEnWzAYJxEoyZuGy0-135" value="&lt;b&gt;System Update Reminder&lt;/b&gt;" style="ellipse;whiteSpace=wrap;html=1;" vertex="1" parent="1">
          <mxGeometry x="-1710" y="1242.1399999999999" width="140" height="70" as="geometry" />
        </mxCell>
        <mxCell id="FGMAEnWzAYJxEoyZuGy0-136" value="&lt;b&gt;Project Deadline Reminder&lt;/b&gt;" style="ellipse;whiteSpace=wrap;html=1;" vertex="1" parent="1">
          <mxGeometry x="-1670" y="1127.1399999999999" width="140" height="70" as="geometry" />
        </mxCell>
        <mxCell id="FGMAEnWzAYJxEoyZuGy0-137" value="&lt;b&gt;Lecture Reminder&lt;/b&gt;" style="ellipse;whiteSpace=wrap;html=1;" vertex="1" parent="1">
          <mxGeometry x="-1720" y="1027.1399999999999" width="140" height="70" as="geometry" />
        </mxCell>
        <mxCell id="FGMAEnWzAYJxEoyZuGy0-138" value="" style="endArrow=none;html=1;rounded=0;exitX=1;exitY=0;exitDx=0;exitDy=0;entryX=0;entryY=0.5;entryDx=0;entryDy=0;" edge="1" parent="1" source="FGMAEnWzAYJxEoyZuGy0-130" target="FGMAEnWzAYJxEoyZuGy0-137">
          <mxGeometry width="50" height="50" relative="1" as="geometry">
            <mxPoint x="-2630" y="1062.1399999999999" as="sourcePoint" />
            <mxPoint x="-2520" y="1022.14" as="targetPoint" />
            <Array as="points" />
          </mxGeometry>
        </mxCell>
        <mxCell id="FGMAEnWzAYJxEoyZuGy0-139" value="" style="endArrow=none;html=1;rounded=0;exitX=1;exitY=1;exitDx=0;exitDy=0;entryX=0;entryY=0;entryDx=0;entryDy=0;" edge="1" parent="1" source="FGMAEnWzAYJxEoyZuGy0-130" target="FGMAEnWzAYJxEoyZuGy0-135">
          <mxGeometry width="50" height="50" relative="1" as="geometry">
            <mxPoint x="-1941" y="1137.1399999999999" as="sourcePoint" />
            <mxPoint x="-1880" y="1052.1399999999999" as="targetPoint" />
            <Array as="points" />
          </mxGeometry>
        </mxCell>
        <mxCell id="FGMAEnWzAYJxEoyZuGy0-140" value="" style="endArrow=none;html=1;rounded=0;exitX=1;exitY=0.5;exitDx=0;exitDy=0;entryX=0;entryY=0.5;entryDx=0;entryDy=0;" edge="1" parent="1" source="FGMAEnWzAYJxEoyZuGy0-130" target="FGMAEnWzAYJxEoyZuGy0-136">
          <mxGeometry width="50" height="50" relative="1" as="geometry">
            <mxPoint x="-1931" y="1147.1399999999999" as="sourcePoint" />
            <mxPoint x="-1870" y="1062.1399999999999" as="targetPoint" />
            <Array as="points" />
          </mxGeometry>
        </mxCell>
        <mxCell id="FGMAEnWzAYJxEoyZuGy0-141" value="" style="endArrow=none;html=1;rounded=0;exitX=1;exitY=1;exitDx=0;exitDy=0;entryX=0.5;entryY=0;entryDx=0;entryDy=0;" edge="1" parent="1" source="FGMAEnWzAYJxEoyZuGy0-130" target="FGMAEnWzAYJxEoyZuGy0-134">
          <mxGeometry width="50" height="50" relative="1" as="geometry">
            <mxPoint x="-1921" y="1157.1399999999999" as="sourcePoint" />
            <mxPoint x="-1860" y="1072.1399999999999" as="targetPoint" />
            <Array as="points" />
          </mxGeometry>
        </mxCell>
        <mxCell id="FGMAEnWzAYJxEoyZuGy0-142" value="" style="endArrow=none;dashed=1;html=1;dashPattern=1 3;strokeWidth=2;rounded=0;strokeColor=#FF0000;" edge="1" parent="1">
          <mxGeometry width="50" height="50" relative="1" as="geometry">
            <mxPoint x="-2040" y="987.14" as="sourcePoint" />
            <mxPoint x="-2040" y="1397.1399999999999" as="targetPoint" />
          </mxGeometry>
        </mxCell>
        <mxCell id="FGMAEnWzAYJxEoyZuGy0-143" value="" style="endArrow=none;dashed=1;html=1;dashPattern=1 3;strokeWidth=2;rounded=0;strokeColor=#FF0000;" edge="1" parent="1">
          <mxGeometry width="50" height="50" relative="1" as="geometry">
            <mxPoint x="-1490" y="987.14" as="sourcePoint" />
            <mxPoint x="-1490" y="1397.1399999999999" as="targetPoint" />
          </mxGeometry>
        </mxCell>
        <mxCell id="FGMAEnWzAYJxEoyZuGy0-144" value="" style="endArrow=none;dashed=1;html=1;dashPattern=1 3;strokeWidth=2;rounded=0;strokeColor=#FF0000;" edge="1" parent="1">
          <mxGeometry width="50" height="50" relative="1" as="geometry">
            <mxPoint x="-1490" y="987.14" as="sourcePoint" />
            <mxPoint x="-2040" y="987.14" as="targetPoint" />
          </mxGeometry>
        </mxCell>
        <mxCell id="FGMAEnWzAYJxEoyZuGy0-145" value="" style="endArrow=none;dashed=1;html=1;dashPattern=1 3;strokeWidth=2;rounded=0;strokeColor=#FF0000;" edge="1" parent="1">
          <mxGeometry width="50" height="50" relative="1" as="geometry">
            <mxPoint x="-1490" y="1397.1399999999999" as="sourcePoint" />
            <mxPoint x="-2040" y="1397.1399999999999" as="targetPoint" />
          </mxGeometry>
        </mxCell>
        <mxCell id="FGMAEnWzAYJxEoyZuGy0-146" value="&lt;b&gt;Emergency Event&lt;/b&gt;" style="ellipse;whiteSpace=wrap;html=1;" vertex="1" parent="1">
          <mxGeometry x="-4370" y="1310" width="140" height="70" as="geometry" />
        </mxCell>
        <mxCell id="FGMAEnWzAYJxEoyZuGy0-147" value="&lt;b&gt;Secreatary is in secretaryHome and presses the Emergency Button from Menu.&lt;/b&gt;" style="rounded=1;whiteSpace=wrap;html=1;" vertex="1" parent="1">
          <mxGeometry x="-4280" y="1200" width="120" height="70" as="geometry" />
        </mxCell>
        <mxCell id="FGMAEnWzAYJxEoyZuGy0-148" value="" style="endArrow=none;dashed=1;html=1;rounded=0;entryX=0.5;entryY=0;entryDx=0;entryDy=0;exitX=0.25;exitY=1;exitDx=0;exitDy=0;" edge="1" parent="1" source="FGMAEnWzAYJxEoyZuGy0-147" target="FGMAEnWzAYJxEoyZuGy0-146">
          <mxGeometry width="50" height="50" relative="1" as="geometry">
            <mxPoint x="-4300" y="718" as="sourcePoint" />
            <mxPoint x="-4250" y="745" as="targetPoint" />
          </mxGeometry>
        </mxCell>
        <mxCell id="FGMAEnWzAYJxEoyZuGy0-149" value="&lt;b&gt;send Request to Admin for handling Emergency&lt;/b&gt;&lt;div&gt;&lt;b&gt;event&lt;/b&gt;&lt;/div&gt;" style="ellipse;whiteSpace=wrap;html=1;" vertex="1" parent="1">
          <mxGeometry x="-4100" y="1320" width="150" height="80" as="geometry" />
        </mxCell>
        <mxCell id="FGMAEnWzAYJxEoyZuGy0-150" value="" style="endArrow=classic;html=1;rounded=0;exitX=1;exitY=0.5;exitDx=0;exitDy=0;entryX=0;entryY=0.5;entryDx=0;entryDy=0;" edge="1" parent="1" source="FGMAEnWzAYJxEoyZuGy0-146" target="FGMAEnWzAYJxEoyZuGy0-149">
          <mxGeometry width="50" height="50" relative="1" as="geometry">
            <mxPoint x="-4210" y="1330" as="sourcePoint" />
            <mxPoint x="-4080" y="1410" as="targetPoint" />
          </mxGeometry>
        </mxCell>
        <mxCell id="FGMAEnWzAYJxEoyZuGy0-151" value="&amp;lt;&amp;lt;include&amp;gt;&amp;gt;" style="edgeLabel;html=1;align=center;verticalAlign=middle;resizable=0;points=[];" vertex="1" connectable="0" parent="FGMAEnWzAYJxEoyZuGy0-150">
          <mxGeometry x="0.0198" y="-3" relative="1" as="geometry">
            <mxPoint as="offset" />
          </mxGeometry>
        </mxCell>
        <mxCell id="FGMAEnWzAYJxEoyZuGy0-152" value="&lt;b&gt;Admin denies Authorization&lt;/b&gt;" style="ellipse;whiteSpace=wrap;html=1;" vertex="1" parent="1">
          <mxGeometry x="-4115" y="1530" width="150" height="80" as="geometry" />
        </mxCell>
        <mxCell id="FGMAEnWzAYJxEoyZuGy0-153" value="&lt;b&gt;Admin gives Authorization&lt;/b&gt;" style="ellipse;whiteSpace=wrap;html=1;" vertex="1" parent="1">
          <mxGeometry x="-4060" y="1650" width="150" height="80" as="geometry" />
        </mxCell>
        <mxCell id="FGMAEnWzAYJxEoyZuGy0-156" value="&lt;b&gt;Secretary Redirected to Secretary Menu&lt;/b&gt;" style="ellipse;whiteSpace=wrap;html=1;" vertex="1" parent="1">
          <mxGeometry x="-3790" y="1430" width="150" height="80" as="geometry" />
        </mxCell>
        <mxCell id="FGMAEnWzAYJxEoyZuGy0-157" value="" style="endArrow=classic;html=1;rounded=0;exitX=1;exitY=0.5;exitDx=0;exitDy=0;entryX=0;entryY=0;entryDx=0;entryDy=0;" edge="1" parent="1" source="FGMAEnWzAYJxEoyZuGy0-149" target="FGMAEnWzAYJxEoyZuGy0-156">
          <mxGeometry width="50" height="50" relative="1" as="geometry">
            <mxPoint x="-4220" y="1355" as="sourcePoint" />
            <mxPoint x="-4090" y="1370" as="targetPoint" />
          </mxGeometry>
        </mxCell>
        <mxCell id="FGMAEnWzAYJxEoyZuGy0-158" value="&amp;lt;&amp;lt;include&amp;gt;&amp;gt;" style="edgeLabel;html=1;align=center;verticalAlign=middle;resizable=0;points=[];" vertex="1" connectable="0" parent="FGMAEnWzAYJxEoyZuGy0-157">
          <mxGeometry x="0.0198" y="-3" relative="1" as="geometry">
            <mxPoint as="offset" />
          </mxGeometry>
        </mxCell>
        <mxCell id="FGMAEnWzAYJxEoyZuGy0-159" value="" style="endArrow=none;html=1;rounded=0;exitX=1;exitY=1;exitDx=0;exitDy=0;exitPerimeter=0;entryX=0;entryY=0.5;entryDx=0;entryDy=0;" edge="1" parent="1" source="h5EkMIQOkNv7f-PZCays-6" target="h5EkMIQOkNv7f-PZCays-192">
          <mxGeometry width="50" height="50" relative="1" as="geometry">
            <mxPoint x="-4680" y="580" as="sourcePoint" />
            <mxPoint x="-3400" y="725" as="targetPoint" />
          </mxGeometry>
        </mxCell>
        <mxCell id="FGMAEnWzAYJxEoyZuGy0-160" value="&lt;b&gt;Admin decides for Authorization&lt;/b&gt;" style="ellipse;whiteSpace=wrap;html=1;" vertex="1" parent="1">
          <mxGeometry x="-4410" y="1500" width="150" height="80" as="geometry" />
        </mxCell>
        <mxCell id="FGMAEnWzAYJxEoyZuGy0-161" value="" style="endArrow=none;html=1;rounded=0;exitX=1;exitY=0.5;exitDx=0;exitDy=0;entryX=0.5;entryY=0;entryDx=0;entryDy=0;" edge="1" parent="1" source="FGMAEnWzAYJxEoyZuGy0-160" target="FGMAEnWzAYJxEoyZuGy0-152">
          <mxGeometry width="50" height="50" relative="1" as="geometry">
            <mxPoint x="-4670" y="1000" as="sourcePoint" />
            <mxPoint x="-4339" y="1330" as="targetPoint" />
          </mxGeometry>
        </mxCell>
        <mxCell id="FGMAEnWzAYJxEoyZuGy0-162" value="" style="endArrow=none;html=1;rounded=0;exitX=1;exitY=1;exitDx=0;exitDy=0;entryX=0;entryY=0;entryDx=0;entryDy=0;" edge="1" parent="1" source="FGMAEnWzAYJxEoyZuGy0-160" target="FGMAEnWzAYJxEoyZuGy0-153">
          <mxGeometry width="50" height="50" relative="1" as="geometry">
            <mxPoint x="-4660" y="1010" as="sourcePoint" />
            <mxPoint x="-4329" y="1340" as="targetPoint" />
          </mxGeometry>
        </mxCell>
        <mxCell id="FGMAEnWzAYJxEoyZuGy0-163" value="" style="endArrow=none;html=1;rounded=0;entryX=1;entryY=0.5;entryDx=0;entryDy=0;exitX=0;exitY=1;exitDx=0;exitDy=0;" edge="1" parent="1" source="FGMAEnWzAYJxEoyZuGy0-165" target="FGMAEnWzAYJxEoyZuGy0-153">
          <mxGeometry width="50" height="50" relative="1" as="geometry">
            <mxPoint x="-3780" y="1650" as="sourcePoint" />
            <mxPoint x="-4028" y="1672" as="targetPoint" />
          </mxGeometry>
        </mxCell>
        <mxCell id="FGMAEnWzAYJxEoyZuGy0-164" value="" style="endArrow=none;html=1;rounded=0;exitX=0.5;exitY=1;exitDx=0;exitDy=0;entryX=0.5;entryY=0;entryDx=0;entryDy=0;" edge="1" parent="1" source="FGMAEnWzAYJxEoyZuGy0-156" target="FGMAEnWzAYJxEoyZuGy0-165">
          <mxGeometry width="50" height="50" relative="1" as="geometry">
            <mxPoint x="-3660" y="1620" as="sourcePoint" />
            <mxPoint x="-3725" y="1580" as="targetPoint" />
          </mxGeometry>
        </mxCell>
        <mxCell id="FGMAEnWzAYJxEoyZuGy0-165" value="&lt;b&gt;Secretary handles Emergency Event Successfully&lt;/b&gt;" style="ellipse;whiteSpace=wrap;html=1;" vertex="1" parent="1">
          <mxGeometry x="-3775" y="1590" width="150" height="80" as="geometry" />
        </mxCell>
        <mxCell id="FGMAEnWzAYJxEoyZuGy0-166" value="" style="endArrow=none;html=1;rounded=0;exitX=1;exitY=0.3333333333333333;exitDx=0;exitDy=0;entryX=0;entryY=0;entryDx=0;entryDy=0;exitPerimeter=0;" edge="1" parent="1" source="h5EkMIQOkNv7f-PZCays-7" target="FGMAEnWzAYJxEoyZuGy0-160">
          <mxGeometry width="50" height="50" relative="1" as="geometry">
            <mxPoint x="-4250" y="1550" as="sourcePoint" />
            <mxPoint x="-4030" y="1540" as="targetPoint" />
          </mxGeometry>
        </mxCell>
        <mxCell id="FGMAEnWzAYJxEoyZuGy0-167" value="" style="line;strokeWidth=2;html=1;rotation=-90;" vertex="1" parent="1">
          <mxGeometry x="-1783.69" y="648.13" width="2190" height="60" as="geometry" />
        </mxCell>
        <mxCell id="FGMAEnWzAYJxEoyZuGy0-168" value="" style="line;strokeWidth=2;html=1;rotation=-90;direction=south;" vertex="1" parent="1">
          <mxGeometry x="-2650" y="-150" width="60" height="3851.5" as="geometry" />
        </mxCell>
        <mxCell id="FGMAEnWzAYJxEoyZuGy0-169" value="&lt;b&gt;Secretary handles Emergency Event Unsuccessfully&lt;/b&gt;" style="ellipse;whiteSpace=wrap;html=1;" vertex="1" parent="1">
          <mxGeometry x="-3770" y="1250" width="150" height="80" as="geometry" />
        </mxCell>
        <mxCell id="FGMAEnWzAYJxEoyZuGy0-170" value="" style="endArrow=none;html=1;rounded=0;exitX=0.5;exitY=1;exitDx=0;exitDy=0;entryX=0.5;entryY=0;entryDx=0;entryDy=0;" edge="1" parent="1" source="FGMAEnWzAYJxEoyZuGy0-169" target="FGMAEnWzAYJxEoyZuGy0-156">
          <mxGeometry width="50" height="50" relative="1" as="geometry">
            <mxPoint x="-3705" y="1520" as="sourcePoint" />
            <mxPoint x="-3690" y="1600" as="targetPoint" />
          </mxGeometry>
        </mxCell>
        <mxCell id="FGMAEnWzAYJxEoyZuGy0-171" value="" style="endArrow=none;html=1;rounded=0;exitX=0;exitY=1;exitDx=0;exitDy=0;entryX=1;entryY=0.5;entryDx=0;entryDy=0;" edge="1" parent="1" source="FGMAEnWzAYJxEoyZuGy0-169" target="FGMAEnWzAYJxEoyZuGy0-152">
          <mxGeometry width="50" height="50" relative="1" as="geometry">
            <mxPoint x="-3685" y="1340" as="sourcePoint" />
            <mxPoint x="-3705" y="1440" as="targetPoint" />
          </mxGeometry>
        </mxCell>
        <mxCell id="FGMAEnWzAYJxEoyZuGy0-172" value="" style="endArrow=none;dashed=1;html=1;dashPattern=1 3;strokeWidth=2;rounded=0;strokeColor=#FF0000;" edge="1" parent="1">
          <mxGeometry width="50" height="50" relative="1" as="geometry">
            <mxPoint x="-3567.25" y="1190" as="sourcePoint" />
            <mxPoint x="-4457.25" y="1180" as="targetPoint" />
          </mxGeometry>
        </mxCell>
        <mxCell id="FGMAEnWzAYJxEoyZuGy0-173" value="" style="endArrow=none;dashed=1;html=1;dashPattern=1 3;strokeWidth=2;rounded=0;strokeColor=#FF0000;" edge="1" parent="1">
          <mxGeometry width="50" height="50" relative="1" as="geometry">
            <mxPoint x="-4460" y="1740" as="sourcePoint" />
            <mxPoint x="-4460" y="1180" as="targetPoint" />
          </mxGeometry>
        </mxCell>
        <mxCell id="FGMAEnWzAYJxEoyZuGy0-174" value="" style="endArrow=none;dashed=1;html=1;dashPattern=1 3;strokeWidth=2;rounded=0;strokeColor=#FF0000;" edge="1" parent="1">
          <mxGeometry width="50" height="50" relative="1" as="geometry">
            <mxPoint x="-4460" y="1750" as="sourcePoint" />
            <mxPoint x="-3570" y="1750" as="targetPoint" />
          </mxGeometry>
        </mxCell>
        <mxCell id="FGMAEnWzAYJxEoyZuGy0-175" value="" style="endArrow=none;dashed=1;html=1;dashPattern=1 3;strokeWidth=2;rounded=0;strokeColor=#FF0000;" edge="1" parent="1">
          <mxGeometry width="50" height="50" relative="1" as="geometry">
            <mxPoint x="-3567.25" y="1750" as="sourcePoint" />
            <mxPoint x="-3567.25" y="1190" as="targetPoint" />
          </mxGeometry>
        </mxCell>
        <mxCell id="FGMAEnWzAYJxEoyZuGy0-176" value="" style="endArrow=none;html=1;rounded=0;exitX=0.5;exitY=0.5;exitDx=0;exitDy=0;exitPerimeter=0;entryX=0;entryY=0.5;entryDx=0;entryDy=0;" edge="1" parent="1" source="h5EkMIQOkNv7f-PZCays-1" target="FGMAEnWzAYJxEoyZuGy0-177">
          <mxGeometry width="50" height="50" relative="1" as="geometry">
            <mxPoint x="-4680" y="310" as="sourcePoint" />
            <mxPoint x="-2390" y="700" as="targetPoint" />
            <Array as="points">
              <mxPoint x="-3580" y="350" />
              <mxPoint x="-3190" y="560" />
              <mxPoint x="-2770" y="750" />
            </Array>
          </mxGeometry>
        </mxCell>
        <mxCell id="FGMAEnWzAYJxEoyZuGy0-177" value="&lt;b&gt;Register To Subject&lt;/b&gt;" style="ellipse;whiteSpace=wrap;html=1;" vertex="1" parent="1">
          <mxGeometry x="-2360" y="654.9999999999999" width="140" height="70" as="geometry" />
        </mxCell>
        <mxCell id="FGMAEnWzAYJxEoyZuGy0-178" value="&lt;b&gt;Student is at studentMenuu and presses &#39;Register To Subject&#39; Button from Menu&lt;/b&gt;" style="rounded=1;whiteSpace=wrap;html=1;" vertex="1" parent="1">
          <mxGeometry x="-2300" y="510" width="120" height="70" as="geometry" />
        </mxCell>
        <mxCell id="FGMAEnWzAYJxEoyZuGy0-179" value="" style="endArrow=none;dashed=1;html=1;rounded=0;exitX=0.5;exitY=0;exitDx=0;exitDy=0;entryX=0.75;entryY=1;entryDx=0;entryDy=0;" edge="1" parent="1" source="FGMAEnWzAYJxEoyZuGy0-177" target="FGMAEnWzAYJxEoyZuGy0-178">
          <mxGeometry width="50" height="50" relative="1" as="geometry">
            <mxPoint x="-2290" y="444.17" as="sourcePoint" />
            <mxPoint x="-1880" y="444.17" as="targetPoint" />
            <Array as="points" />
          </mxGeometry>
        </mxCell>
        <mxCell id="FGMAEnWzAYJxEoyZuGy0-180" value="&lt;b&gt;Check Enrollment Period&lt;/b&gt;" style="ellipse;whiteSpace=wrap;html=1;" vertex="1" parent="1">
          <mxGeometry x="-2120" y="584.9999999999999" width="140" height="70" as="geometry" />
        </mxCell>
        <mxCell id="FGMAEnWzAYJxEoyZuGy0-181" value="" style="endArrow=classic;html=1;rounded=0;exitX=1;exitY=0.5;exitDx=0;exitDy=0;entryX=0;entryY=1;entryDx=0;entryDy=0;" edge="1" parent="1" source="FGMAEnWzAYJxEoyZuGy0-177" target="FGMAEnWzAYJxEoyZuGy0-180">
          <mxGeometry width="50" height="50" relative="1" as="geometry">
            <mxPoint x="-2170" y="714" as="sourcePoint" />
            <mxPoint x="-2109" y="770" as="targetPoint" />
          </mxGeometry>
        </mxCell>
        <mxCell id="FGMAEnWzAYJxEoyZuGy0-182" value="&amp;lt;&amp;lt;include&amp;gt;&amp;gt;" style="edgeLabel;html=1;align=center;verticalAlign=middle;resizable=0;points=[];" vertex="1" connectable="0" parent="FGMAEnWzAYJxEoyZuGy0-181">
          <mxGeometry x="0.0198" y="-3" relative="1" as="geometry">
            <mxPoint as="offset" />
          </mxGeometry>
        </mxCell>
        <mxCell id="FGMAEnWzAYJxEoyZuGy0-183" value="&lt;b&gt;Registration Successful&lt;/b&gt;" style="ellipse;whiteSpace=wrap;html=1;" vertex="1" parent="1">
          <mxGeometry x="-1720" y="681.8199999999999" width="140" height="70" as="geometry" />
        </mxCell>
        <mxCell id="FGMAEnWzAYJxEoyZuGy0-184" value="&lt;b&gt;Registration Unuccessful&lt;/b&gt;" style="ellipse;whiteSpace=wrap;html=1;" vertex="1" parent="1">
          <mxGeometry x="-2240" y="789.9999999999999" width="140" height="70" as="geometry" />
        </mxCell>
        <mxCell id="FGMAEnWzAYJxEoyZuGy0-185" value="" style="endArrow=none;html=1;rounded=0;exitX=0.5;exitY=0;exitDx=0;exitDy=0;entryX=0.5;entryY=1;entryDx=0;entryDy=0;" edge="1" parent="1" source="FGMAEnWzAYJxEoyZuGy0-184" target="FGMAEnWzAYJxEoyZuGy0-180">
          <mxGeometry width="50" height="50" relative="1" as="geometry">
            <mxPoint x="-2186" y="400" as="sourcePoint" />
            <mxPoint x="-1980" y="525" as="targetPoint" />
            <Array as="points" />
          </mxGeometry>
        </mxCell>
        <mxCell id="FGMAEnWzAYJxEoyZuGy0-186" value="&lt;b&gt;Aleardy Registered&lt;/b&gt;" style="ellipse;whiteSpace=wrap;html=1;" vertex="1" parent="1">
          <mxGeometry x="-1880" y="699.9999999999999" width="140" height="70" as="geometry" />
        </mxCell>
        <mxCell id="FGMAEnWzAYJxEoyZuGy0-187" value="&lt;b&gt;check if Prerequisites Met(Year + Semester)&lt;/b&gt;" style="ellipse;whiteSpace=wrap;html=1;" vertex="1" parent="1">
          <mxGeometry x="-1880" y="529.9999999999999" width="140" height="70" as="geometry" />
        </mxCell>
        <mxCell id="FGMAEnWzAYJxEoyZuGy0-188" value="" style="endArrow=none;html=1;rounded=0;exitX=1;exitY=0;exitDx=0;exitDy=0;entryX=0;entryY=1;entryDx=0;entryDy=0;" edge="1" parent="1" source="FGMAEnWzAYJxEoyZuGy0-184" target="FGMAEnWzAYJxEoyZuGy0-187">
          <mxGeometry width="50" height="50" relative="1" as="geometry">
            <mxPoint x="-2160" y="800" as="sourcePoint" />
            <mxPoint x="-2040" y="665" as="targetPoint" />
            <Array as="points" />
          </mxGeometry>
        </mxCell>
        <mxCell id="FGMAEnWzAYJxEoyZuGy0-189" value="" style="endArrow=none;html=1;rounded=0;exitX=0;exitY=0;exitDx=0;exitDy=0;entryX=1;entryY=1;entryDx=0;entryDy=0;" edge="1" parent="1" source="FGMAEnWzAYJxEoyZuGy0-183" target="FGMAEnWzAYJxEoyZuGy0-187">
          <mxGeometry width="50" height="50" relative="1" as="geometry">
            <mxPoint x="-2111" y="810" as="sourcePoint" />
            <mxPoint x="-1889" y="615" as="targetPoint" />
            <Array as="points" />
          </mxGeometry>
        </mxCell>
        <mxCell id="FGMAEnWzAYJxEoyZuGy0-190" value="" style="endArrow=none;html=1;rounded=0;exitX=0;exitY=0;exitDx=0;exitDy=0;entryX=1;entryY=1;entryDx=0;entryDy=0;" edge="1" parent="1" source="FGMAEnWzAYJxEoyZuGy0-186" target="FGMAEnWzAYJxEoyZuGy0-180">
          <mxGeometry width="50" height="50" relative="1" as="geometry">
            <mxPoint x="-2111" y="810" as="sourcePoint" />
            <mxPoint x="-1889" y="615" as="targetPoint" />
            <Array as="points" />
          </mxGeometry>
        </mxCell>
        <mxCell id="FGMAEnWzAYJxEoyZuGy0-191" value="" style="endArrow=none;html=1;rounded=0;exitX=0;exitY=1;exitDx=0;exitDy=0;entryX=1;entryY=0.5;entryDx=0;entryDy=0;" edge="1" parent="1" source="FGMAEnWzAYJxEoyZuGy0-186" target="FGMAEnWzAYJxEoyZuGy0-184">
          <mxGeometry width="50" height="50" relative="1" as="geometry">
            <mxPoint x="-1879" y="740" as="sourcePoint" />
            <mxPoint x="-1991" y="655" as="targetPoint" />
            <Array as="points" />
          </mxGeometry>
        </mxCell>
        <mxCell id="FGMAEnWzAYJxEoyZuGy0-192" value="" style="endArrow=classic;html=1;rounded=0;exitX=1;exitY=0.5;exitDx=0;exitDy=0;entryX=0;entryY=0.5;entryDx=0;entryDy=0;" edge="1" parent="1" source="FGMAEnWzAYJxEoyZuGy0-180" target="FGMAEnWzAYJxEoyZuGy0-187">
          <mxGeometry width="50" height="50" relative="1" as="geometry">
            <mxPoint x="-2210" y="700" as="sourcePoint" />
            <mxPoint x="-2089" y="655" as="targetPoint" />
          </mxGeometry>
        </mxCell>
        <mxCell id="FGMAEnWzAYJxEoyZuGy0-193" value="&amp;lt;&amp;lt;include&amp;gt;&amp;gt;" style="edgeLabel;html=1;align=center;verticalAlign=middle;resizable=0;points=[];" vertex="1" connectable="0" parent="FGMAEnWzAYJxEoyZuGy0-192">
          <mxGeometry x="0.0198" y="-3" relative="1" as="geometry">
            <mxPoint as="offset" />
          </mxGeometry>
        </mxCell>
        <mxCell id="FGMAEnWzAYJxEoyZuGy0-194" value="" style="endArrow=classic;html=1;rounded=0;exitX=0.5;exitY=1;exitDx=0;exitDy=0;entryX=0;entryY=0;entryDx=0;entryDy=0;" edge="1" parent="1" source="FGMAEnWzAYJxEoyZuGy0-180" target="FGMAEnWzAYJxEoyZuGy0-196">
          <mxGeometry width="50" height="50" relative="1" as="geometry">
            <mxPoint x="-1970" y="630" as="sourcePoint" />
            <mxPoint x="-1990" y="830" as="targetPoint" />
          </mxGeometry>
        </mxCell>
        <mxCell id="FGMAEnWzAYJxEoyZuGy0-195" value="&amp;lt;&amp;lt;include&amp;gt;&amp;gt;" style="edgeLabel;html=1;align=center;verticalAlign=middle;resizable=0;points=[];" vertex="1" connectable="0" parent="FGMAEnWzAYJxEoyZuGy0-194">
          <mxGeometry x="0.0198" y="-3" relative="1" as="geometry">
            <mxPoint as="offset" />
          </mxGeometry>
        </mxCell>
        <mxCell id="FGMAEnWzAYJxEoyZuGy0-196" value="&lt;b&gt;Max number of ECTS has reached&lt;/b&gt;" style="ellipse;whiteSpace=wrap;html=1;" vertex="1" parent="1">
          <mxGeometry x="-1940" y="819.9999999999999" width="140" height="70" as="geometry" />
        </mxCell>
        <mxCell id="FGMAEnWzAYJxEoyZuGy0-197" value="" style="endArrow=none;html=1;rounded=0;exitX=0;exitY=0.5;exitDx=0;exitDy=0;entryX=1;entryY=1;entryDx=0;entryDy=0;" edge="1" parent="1" source="FGMAEnWzAYJxEoyZuGy0-196" target="FGMAEnWzAYJxEoyZuGy0-184">
          <mxGeometry width="50" height="50" relative="1" as="geometry">
            <mxPoint x="-1849" y="770" as="sourcePoint" />
            <mxPoint x="-2090" y="835" as="targetPoint" />
            <Array as="points" />
          </mxGeometry>
        </mxCell>
        <mxCell id="FGMAEnWzAYJxEoyZuGy0-198" value="" style="endArrow=none;dashed=1;html=1;dashPattern=1 3;strokeWidth=2;rounded=0;" edge="1" parent="1">
          <mxGeometry width="50" height="50" relative="1" as="geometry">
            <mxPoint x="-2380.83" y="465" as="sourcePoint" />
            <mxPoint x="-2381" y="920" as="targetPoint" />
          </mxGeometry>
        </mxCell>
        <mxCell id="FGMAEnWzAYJxEoyZuGy0-199" value="" style="endArrow=none;dashed=1;html=1;dashPattern=1 3;strokeWidth=2;rounded=0;" edge="1" parent="1">
          <mxGeometry width="50" height="50" relative="1" as="geometry">
            <mxPoint x="-1540" y="915" as="sourcePoint" />
            <mxPoint x="-2380" y="915" as="targetPoint" />
          </mxGeometry>
        </mxCell>
        <mxCell id="FGMAEnWzAYJxEoyZuGy0-200" value="" style="endArrow=none;dashed=1;html=1;dashPattern=1 3;strokeWidth=2;rounded=0;" edge="1" parent="1">
          <mxGeometry width="50" height="50" relative="1" as="geometry">
            <mxPoint x="-1539" y="910" as="sourcePoint" />
            <mxPoint x="-1539" y="460" as="targetPoint" />
          </mxGeometry>
        </mxCell>
        <mxCell id="FGMAEnWzAYJxEoyZuGy0-201" value="" style="endArrow=none;dashed=1;html=1;dashPattern=1 3;strokeWidth=2;rounded=0;" edge="1" parent="1">
          <mxGeometry width="50" height="50" relative="1" as="geometry">
            <mxPoint x="-1540" y="460" as="sourcePoint" />
            <mxPoint x="-2380" y="460" as="targetPoint" />
          </mxGeometry>
        </mxCell>
      </root>
    </mxGraphModel>
  </diagram>
</mxfile>
